<svg width="397" height="679" viewBox="0 0 397 679" fill="none" xmlns="http://www.w3.org/2000/svg">
<g opacity="0.5" filter="url(#filter0_f_11_8)">
<path d="M48.8709 611.406C58.8218 611.406 66.9349 619.474 66.9349 629.47C66.9349 639.466 58.8666 647.534 48.8709 647.534C38.9199 647.534 30.8068 639.466 30.8068 629.47C30.8068 619.474 38.8751 611.406 48.8709 611.406Z" fill="#16425B"/>
<path d="M48.8732 514.588C58.8241 514.588 66.9373 522.656 66.9373 532.652C66.9373 542.603 58.8689 550.716 48.8732 550.716C38.9222 550.716 30.8091 542.648 30.8091 532.652C30.8091 522.701 38.8774 514.588 48.8732 514.588Z" fill="#16425B"/>
<path d="M48.8707 417.768C58.8217 417.768 66.9348 425.836 66.9348 435.832C66.9348 445.827 58.8665 453.896 48.8707 453.896C38.9198 453.896 30.8066 445.827 30.8066 435.832C30.8066 425.836 38.875 417.768 48.8707 417.768Z" fill="#16425B"/>
<path d="M48.8722 320.994C58.8231 320.994 66.9363 329.062 66.9363 339.058C66.9363 349.054 58.868 357.122 48.8722 357.122C38.9213 357.122 30.8081 349.053 30.8081 339.058C30.8081 329.062 38.8764 320.994 48.8722 320.994Z" fill="#81C3D7"/>
<path d="M48.8729 224.168C58.8239 224.168 66.937 232.237 66.937 242.232C66.937 252.183 58.8687 260.297 48.8729 260.297C38.922 260.297 30.8088 252.228 30.8088 242.232C30.8088 232.237 38.8772 224.168 48.8729 224.168Z" fill="#16425B"/>
<path d="M48.8718 127.35C58.8228 127.35 66.9359 135.418 66.9359 145.414C66.9359 155.41 58.8676 163.478 48.8718 163.478C38.9209 163.478 30.8077 155.41 30.8077 145.414C30.8077 135.418 38.8761 127.35 48.8718 127.35Z" fill="#16425B"/>
<path d="M48.8728 30.5305C58.8237 30.5305 66.9369 38.5988 66.9369 48.5946C66.9369 58.5903 58.8686 66.6587 48.8728 66.6587C38.9219 66.6587 30.8087 58.5903 30.8087 48.5946C30.8087 38.5988 38.877 30.5305 48.8728 30.5305Z" fill="#81C3D7"/>
<path d="M123.636 611.406C113.66 611.406 105.572 619.493 105.572 629.47C105.572 639.446 113.66 647.534 123.636 647.534C133.613 647.534 141.7 639.446 141.7 629.47C141.7 619.493 133.613 611.406 123.636 611.406Z" fill="#16425B"/>
<path d="M123.636 514.589C133.587 514.589 141.701 522.658 141.701 532.653C141.701 542.604 133.632 550.718 123.636 550.718C113.686 550.718 105.572 542.649 105.572 532.653C105.572 522.703 113.686 514.589 123.636 514.589Z" stroke="#16425B" stroke-miterlimit="10"/>
<path d="M123.636 417.768C113.66 417.768 105.572 425.855 105.572 435.832C105.572 445.808 113.66 453.896 123.636 453.896C133.613 453.896 141.7 445.808 141.7 435.832C141.7 425.855 133.613 417.768 123.636 417.768Z" fill="#16425B"/>
<path d="M123.636 320.94C113.659 320.94 105.572 329.028 105.572 339.004C105.572 348.981 113.659 357.068 123.636 357.068C133.612 357.068 141.7 348.981 141.7 339.004C141.7 329.028 133.612 320.94 123.636 320.94Z" fill="#16425B"/>
<path d="M123.635 224.167C133.586 224.167 141.699 232.236 141.699 242.231C141.699 252.182 133.631 260.296 123.635 260.296C113.684 260.296 105.571 252.227 105.571 242.231C105.571 232.236 113.684 224.167 123.635 224.167Z" fill="#16425B"/>
<path d="M123.636 127.308C113.659 127.308 105.572 135.395 105.572 145.372C105.572 155.348 113.659 163.436 123.636 163.436C133.613 163.436 141.7 155.348 141.7 145.372C141.7 135.395 133.613 127.308 123.636 127.308Z" stroke="#16425B" stroke-miterlimit="10"/>
<path d="M123.636 30.4861C113.659 30.4861 105.572 38.5736 105.572 48.5502C105.572 58.5267 113.659 66.6142 123.636 66.6142C133.612 66.6142 141.7 58.5267 141.7 48.5502C141.7 38.5736 133.612 30.4861 123.636 30.4861Z" fill="#16425B"/>
<path d="M198.454 611.407C188.478 611.407 180.39 619.495 180.39 629.471C180.39 639.448 188.478 647.535 198.454 647.535C208.431 647.535 216.518 639.448 216.518 629.471C216.518 619.495 208.431 611.407 198.454 611.407Z" fill="#16425B"/>
<path d="M198.455 514.587C208.406 514.587 216.519 522.656 216.519 532.651C216.519 542.602 208.451 550.716 198.455 550.716C188.46 550.716 180.391 542.647 180.391 532.651C180.391 522.701 188.46 514.587 198.455 514.587Z" fill="#16425B"/>
<path d="M198.454 417.769C188.478 417.769 180.39 425.857 180.39 435.833C180.39 445.81 188.478 453.897 198.454 453.897C208.431 453.897 216.518 445.81 216.518 435.833C216.518 425.857 208.431 417.769 198.454 417.769Z" fill="#16425B"/>
<path d="M198.454 320.942C188.477 320.942 180.39 329.029 180.39 339.006C180.39 348.982 188.477 357.07 198.454 357.07C208.43 357.07 216.518 348.982 216.518 339.006C216.518 329.029 208.43 320.942 198.454 320.942Z" fill="#16425B"/>
<path d="M198.455 224.167C208.406 224.167 216.519 232.236 216.519 242.231C216.519 252.182 208.451 260.296 198.455 260.296C188.459 260.296 180.391 252.227 180.391 242.231C180.391 232.236 188.459 224.167 198.455 224.167Z" fill="#81C3D7"/>
<path d="M198.455 127.306C188.478 127.306 180.391 135.393 180.391 145.37C180.391 155.346 188.478 163.434 198.455 163.434C208.431 163.434 216.519 155.346 216.519 145.37C216.519 135.393 208.431 127.306 198.455 127.306Z" fill="#16425B"/>
<path d="M198.456 30.4861C188.479 30.4861 180.392 38.5736 180.392 48.5502C180.392 58.5267 188.479 66.6142 198.456 66.6142C208.432 66.6142 216.52 58.5267 216.52 48.5502C216.52 38.5736 208.432 30.4861 198.456 30.4861Z" fill="#16425B"/>
<path d="M273.262 611.406C263.286 611.406 255.198 619.493 255.198 629.47C255.198 639.446 263.286 647.534 273.262 647.534C283.239 647.534 291.326 639.446 291.326 629.47C291.326 619.493 283.239 611.406 273.262 611.406Z" fill="#16425B"/>
<path d="M273.262 514.589C283.213 514.589 291.326 522.658 291.326 532.653C291.326 542.604 283.258 550.718 273.262 550.718C263.266 550.718 255.198 542.649 255.198 532.653C255.198 522.703 263.266 514.589 273.262 514.589Z" fill="#81C3D7"/>
<path d="M273.262 417.768C263.285 417.768 255.198 425.855 255.198 435.832C255.198 445.808 263.285 453.896 273.262 453.896C283.238 453.896 291.326 445.808 291.326 435.832C291.326 425.855 283.238 417.768 273.262 417.768Z" fill="#16425B"/>
<path d="M273.263 320.942C263.286 320.942 255.199 329.03 255.199 339.006C255.199 348.983 263.286 357.071 273.263 357.071C283.239 357.071 291.327 348.983 291.327 339.006C291.327 329.03 283.239 320.942 273.263 320.942Z" stroke="#16425B" stroke-miterlimit="10"/>
<path d="M273.264 224.168C283.215 224.168 291.328 232.236 291.328 242.232C291.328 252.183 283.26 260.296 273.264 260.296C263.268 260.296 255.2 252.228 255.2 242.232C255.2 232.236 263.268 224.168 273.264 224.168Z" fill="#16425B"/>
<path d="M273.264 127.306C263.287 127.306 255.2 135.394 255.2 145.37C255.2 155.347 263.287 163.435 273.264 163.435C283.24 163.435 291.328 155.347 291.328 145.37C291.328 135.394 283.24 127.306 273.264 127.306Z" fill="#16425B"/>
<path d="M273.263 30.488C263.286 30.488 255.199 38.5756 255.199 48.5521C255.199 58.5286 263.286 66.6162 273.263 66.6162C283.239 66.6162 291.327 58.5286 291.327 48.5521C291.327 38.5756 283.239 30.488 273.263 30.488Z" fill="#16425B"/>
<path d="M348.028 611.406C338.051 611.406 329.964 619.493 329.964 629.47C329.964 639.446 338.051 647.534 348.028 647.534C358.004 647.534 366.092 639.446 366.092 629.47C366.092 619.493 358.004 611.406 348.028 611.406Z" stroke="#16425B" stroke-miterlimit="10"/>
<path d="M348.028 514.589C357.979 514.589 366.092 522.658 366.092 532.653C366.092 542.604 358.023 550.718 348.028 550.718C338.077 550.718 329.964 542.649 329.964 532.653C329.964 522.703 338.077 514.589 348.028 514.589Z" fill="#16425B"/>
<path d="M348.027 417.767C338.051 417.767 329.963 425.855 329.963 435.831C329.963 445.808 338.051 453.896 348.027 453.896C358.004 453.896 366.092 445.808 366.092 435.831C366.092 425.855 358.004 417.767 348.027 417.767Z" fill="#16425B"/>
<path d="M348.027 320.94C338.05 320.94 329.963 329.028 329.963 339.004C329.963 348.981 338.05 357.068 348.027 357.068C358.004 357.068 366.091 348.981 366.091 339.004C366.091 329.028 358.004 320.94 348.027 320.94Z" fill="#16425B"/>
<path d="M348.026 224.167C357.977 224.167 366.09 232.235 366.09 242.231C366.09 252.182 358.022 260.295 348.026 260.295C338.075 260.295 329.962 252.227 329.962 242.231C329.962 232.235 338.075 224.167 348.026 224.167Z" fill="#16425B"/>
<path d="M348.027 127.308C338.051 127.308 329.963 135.395 329.963 145.372C329.963 155.348 338.051 163.436 348.027 163.436C358.004 163.436 366.091 155.348 366.091 145.372C366.091 135.395 358.004 127.308 348.027 127.308Z" fill="#16425B"/>
<path d="M348.027 30.4858C338.05 30.4858 329.963 38.5734 329.963 48.5499C329.963 58.5264 338.05 66.614 348.027 66.614C358.004 66.614 366.091 58.5265 366.091 48.5499C366.091 38.5734 358.004 30.4858 348.027 30.4858Z" fill="#16425B"/>
</g>
<defs>
<filter id="filter0_f_11_8" x="0.806641" y="0.48584" width="395.785" height="677.548" filterUnits="userSpaceOnUse" color-interpolation-filters="sRGB">
<feFlood flood-opacity="0" result="BackgroundImageFix"/>
<feBlend mode="normal" in="SourceGraphic" in2="BackgroundImageFix" result="shape"/>
<feGaussianBlur stdDeviation="15" result="effect1_foregroundBlur_11_8"/>
</filter>
</defs>
</svg>
