<svg width="33" height="33" viewBox="0 0 33 33" fill="none" xmlns="http://www.w3.org/2000/svg">
<path d="M26.8022 3.48145H9.80225C8.74138 3.48145 7.72396 3.90287 6.97382 4.65302C6.22367 5.40316 5.80225 6.42058 5.80225 7.48145V28.4814C5.80225 28.7467 5.9076 29.001 6.09514 29.1886C6.28268 29.3761 6.53703 29.4814 6.80225 29.4814H24.8022C25.0675 29.4814 25.3218 29.3761 25.5094 29.1886C25.6969 29.001 25.8022 28.7467 25.8022 28.4814C25.8022 28.2162 25.6969 27.9619 25.5094 27.7743C25.3218 27.5868 25.0675 27.4814 24.8022 27.4814H7.80225C7.80225 26.951 8.01296 26.4423 8.38803 26.0672C8.76311 25.6922 9.27181 25.4814 9.80225 25.4814H26.8022C27.0675 25.4814 27.3218 25.3761 27.5094 25.1886C27.6969 25.001 27.8022 24.7467 27.8022 24.4814V4.48145C27.8022 4.21623 27.6969 3.96187 27.5094 3.77434C27.3218 3.5868 27.0675 3.48145 26.8022 3.48145ZM15.8022 5.48145H21.8022V14.4814L19.401 12.6814C19.2279 12.5516 19.0174 12.4814 18.801 12.4814C18.5846 12.4814 18.3741 12.5516 18.201 12.6814L15.8022 14.4814V5.48145ZM25.8022 23.4814H9.80225C9.09993 23.4805 8.40988 23.6655 7.80225 24.0177V7.48145C7.80225 6.95101 8.01296 6.4423 8.38803 6.06723C8.76311 5.69216 9.27181 5.48145 9.80225 5.48145H13.8022V16.4814C13.8022 16.6672 13.854 16.8492 13.9516 17.0072C14.0492 17.1652 14.1889 17.2928 14.355 17.3759C14.5211 17.4589 14.7071 17.4941 14.8921 17.4774C15.077 17.4607 15.2537 17.3929 15.4022 17.2814L18.8022 14.7314L22.2035 17.2814C22.3763 17.411 22.5863 17.4812 22.8022 17.4814C23.0675 17.4814 23.3218 17.3761 23.5094 17.1886C23.6969 17.001 23.8022 16.7467 23.8022 16.4814V5.48145H25.8022V23.4814Z" fill="#D9DCD6"/>
</svg>
