<svg width="56" height="56" viewBox="0 0 56 56" fill="none" xmlns="http://www.w3.org/2000/svg">
<path d="M45.5 5.25H15.75C13.8935 5.25 12.113 5.9875 10.8003 7.30025C9.4875 8.61301 8.75 10.3935 8.75 12.25V49C8.75 49.4641 8.93437 49.9092 9.26256 50.2374C9.59075 50.5656 10.0359 50.75 10.5 50.75H42C42.4641 50.75 42.9092 50.5656 43.2374 50.2374C43.5656 49.9092 43.75 49.4641 43.75 49C43.75 48.5359 43.5656 48.0908 43.2374 47.7626C42.9092 47.4344 42.4641 47.25 42 47.25H12.25C12.25 46.3217 12.6187 45.4315 13.2751 44.7751C13.9315 44.1188 14.8217 43.75 15.75 43.75H45.5C45.9641 43.75 46.4092 43.5656 46.7374 43.2374C47.0656 42.9092 47.25 42.4641 47.25 42V7C47.25 6.53587 47.0656 6.09075 46.7374 5.76256C46.4092 5.43437 45.9641 5.25 45.5 5.25ZM26.25 8.75H36.75V24.5L32.5478 21.35C32.2449 21.1228 31.8765 21 31.4978 21C31.1192 21 30.7507 21.1228 30.4478 21.35L26.25 24.5V8.75ZM43.75 40.25H15.75C14.5209 40.2483 13.3134 40.5721 12.25 41.1884V12.25C12.25 11.3217 12.6187 10.4315 13.2751 9.77513C13.9315 9.11875 14.8217 8.75 15.75 8.75H22.75V28C22.75 28.325 22.8405 28.6436 23.0114 28.92C23.1822 29.1965 23.4267 29.4199 23.7174 29.5652C24.0081 29.7106 24.3335 29.7721 24.6572 29.7429C24.9808 29.7137 25.29 29.595 25.55 29.4L31.5 24.9375L37.4522 29.4C37.7545 29.6267 38.1221 29.7495 38.5 29.75C38.9641 29.75 39.4093 29.5656 39.7374 29.2374C40.0656 28.9093 40.25 28.4641 40.25 28V8.75H43.75V40.25Z" fill="url(#paint0_linear_1_71)"/>
<defs>
<linearGradient id="paint0_linear_1_71" x1="28" y1="5.25" x2="28" y2="50.75" gradientUnits="userSpaceOnUse">
<stop stop-color="#1A88C7"/>
<stop offset="1" stop-color="#81C4D7" stop-opacity="0.48"/>
</linearGradient>
</defs>
</svg>
