<svg width="16" height="10" viewBox="0 0 16 10" fill="none" xmlns="http://www.w3.org/2000/svg">
<path d="M0.239202 0.676186C0.304831 0.606447 0.382665 0.55122 0.468252 0.513659C0.553838 0.476099 0.645497 0.456943 0.737993 0.457287C0.830489 0.45763 0.922007 0.477466 1.00731 0.515661C1.09262 0.553856 1.17004 0.60966 1.23515 0.679884L7.74965 7.69931L14.3161 0.728461C14.4487 0.58772 14.6281 0.509041 14.8149 0.509734C15.0017 0.510428 15.1805 0.590437 15.3121 0.732159C15.4436 0.873881 15.5171 1.06571 15.5163 1.26544C15.5156 1.46517 15.4407 1.65645 15.3081 1.79719L8.24169 9.29776C8.17607 9.3675 8.09823 9.42272 8.01265 9.46028C7.92706 9.49784 7.8354 9.517 7.7429 9.51666C7.65041 9.51631 7.55889 9.49648 7.47359 9.45828C7.38828 9.42009 7.31086 9.36428 7.24575 9.29406L0.235247 1.74122C0.170066 1.67107 0.118458 1.58786 0.083377 1.49636C0.0482962 1.40486 0.0304305 1.30685 0.0307979 1.20793C0.0311652 1.10902 0.0497582 1.01115 0.0855177 0.919905C0.121277 0.828664 0.173502 0.745846 0.239202 0.676186Z" fill="#D9DCD6"/>
</svg>
