<svg width="56" height="56" viewBox="0 0 56 56" fill="none" xmlns="http://www.w3.org/2000/svg">
<path d="M45.5 7H10.5C9.57174 7 8.6815 7.36875 8.02513 8.02513C7.36875 8.6815 7 9.57174 7 10.5V45.5C7 46.4283 7.36875 47.3185 8.02513 47.9749C8.6815 48.6312 9.57174 49 10.5 49H45.5C46.4283 49 47.3185 48.6312 47.9749 47.9749C48.6312 47.3185 49 46.4283 49 45.5V10.5C49 9.57174 48.6312 8.6815 47.9749 8.02513C47.3185 7.36875 46.4283 7 45.5 7ZM19.25 35C19.5961 35 19.9345 35.1026 20.2222 35.2949C20.51 35.4872 20.7343 35.7605 20.8668 36.0803C20.9992 36.4001 21.0339 36.7519 20.9664 37.0914C20.8989 37.4309 20.7322 37.7427 20.4874 37.9874C20.2427 38.2322 19.9309 38.3988 19.5914 38.4664C19.2519 38.5339 18.9001 38.4992 18.5803 38.3668C18.2605 38.2343 17.9872 38.01 17.7949 37.7222C17.6026 37.4345 17.5 37.0961 17.5 36.75C17.5 36.2859 17.6844 35.8407 18.0126 35.5126C18.3408 35.1844 18.7859 35 19.25 35ZM10.5 10.5H17.5V31.8019C16.3324 32.2147 15.3483 33.027 14.7216 34.0952C14.095 35.1634 13.8662 36.4188 14.0756 37.6394C14.285 38.86 14.9192 39.9673 15.8661 40.7656C16.813 41.5638 18.0115 42.0016 19.25 42.0016C20.4885 42.0016 21.687 41.5638 22.6339 40.7656C23.5808 39.9673 24.215 38.86 24.4244 37.6394C24.6338 36.4188 24.405 35.1634 23.7784 34.0952C23.1517 33.027 22.1676 32.2147 21 31.8019V25.2241L31.5 35.7241V45.5H10.5V10.5ZM45.5 45.5H35V35C35.0002 34.7701 34.9551 34.5425 34.8672 34.33C34.7794 34.1176 34.6506 33.9245 34.4881 33.7619L21 20.2759V10.5H28V15.75C27.9998 15.9799 28.0449 16.2075 28.1328 16.42C28.2206 16.6324 28.3494 16.8255 28.5119 16.9881L32.0119 20.4881C31.6729 21.1939 31.4979 21.9671 31.5 22.75C31.5 23.7884 31.8079 24.8034 32.3848 25.6667C32.9617 26.5301 33.7816 27.203 34.7409 27.6004C35.7002 27.9977 36.7558 28.1017 37.7742 27.8991C38.7926 27.6966 39.7281 27.1965 40.4623 26.4623C41.1965 25.7281 41.6966 24.7926 41.8991 23.7742C42.1017 22.7558 41.9977 21.7002 41.6004 20.7409C41.203 19.7816 40.5301 18.9617 39.6667 18.3848C38.8034 17.8079 37.7884 17.5 36.75 17.5C35.9669 17.4986 35.1937 17.6744 34.4881 18.0141L31.5 15.0259V10.5H45.5V45.5ZM36.75 21C37.0961 21 37.4345 21.1026 37.7222 21.2949C38.01 21.4872 38.2343 21.7605 38.3668 22.0803C38.4992 22.4001 38.5339 22.7519 38.4664 23.0914C38.3988 23.4309 38.2322 23.7427 37.9874 23.9874C37.7427 24.2322 37.4309 24.3988 37.0914 24.4664C36.7519 24.5339 36.4001 24.4992 36.0803 24.3668C35.7605 24.2343 35.4872 24.01 35.2949 23.7222C35.1026 23.4345 35 23.0961 35 22.75C35 22.2859 35.1844 21.8408 35.5126 21.5126C35.8407 21.1844 36.2859 21 36.75 21Z" fill="url(#paint0_linear_11_78)"/>
<defs>
<linearGradient id="paint0_linear_11_78" x1="28" y1="7" x2="28" y2="49" gradientUnits="userSpaceOnUse">
<stop stop-color="#1A88C7"/>
<stop offset="1" stop-color="#81C4D7" stop-opacity="0.48"/>
</linearGradient>
</defs>
</svg>
