<svg width="33" height="33" viewBox="0 0 33 33" fill="none" xmlns="http://www.w3.org/2000/svg">
<path d="M26.9885 4.5072H6.98849C6.45806 4.5072 5.94935 4.71792 5.57428 5.09299C5.19921 5.46806 4.98849 5.97677 4.98849 6.5072V26.5072C4.98849 27.0376 5.19921 27.5463 5.57428 27.9214C5.94935 28.2965 6.45806 28.5072 6.98849 28.5072H26.9885C27.5189 28.5072 28.0276 28.2965 28.4027 27.9214C28.7778 27.5463 28.9885 27.0376 28.9885 26.5072V6.5072C28.9885 5.97677 28.7778 5.46806 28.4027 5.09299C28.0276 4.71792 27.5189 4.5072 26.9885 4.5072ZM11.9885 20.5072C12.1863 20.5072 12.3796 20.5659 12.5441 20.6757C12.7085 20.7856 12.8367 20.9418 12.9124 21.1245C12.9881 21.3072 13.0079 21.5083 12.9693 21.7023C12.9307 21.8963 12.8355 22.0745 12.6956 22.2143C12.5557 22.3542 12.3776 22.4494 12.1836 22.488C11.9896 22.5266 11.7885 22.5068 11.6058 22.4311C11.4231 22.3554 11.2669 22.2272 11.157 22.0628C11.0471 21.8983 10.9885 21.705 10.9885 21.5072C10.9885 21.242 11.0939 20.9876 11.2814 20.8001C11.4689 20.6126 11.7233 20.5072 11.9885 20.5072ZM6.98849 6.5072H10.9885V18.6797C10.3213 18.9156 9.75894 19.3798 9.40086 19.9902C9.04279 20.6006 8.91203 21.3179 9.0317 22.0154C9.15137 22.7129 9.51377 23.3457 10.0548 23.8018C10.5959 24.2579 11.2808 24.5081 11.9885 24.5081C12.6962 24.5081 13.3811 24.2579 13.9222 23.8018C14.4632 23.3457 14.8256 22.7129 14.9453 22.0154C15.065 21.3179 14.9342 20.6006 14.5761 19.9902C14.218 19.3798 13.6557 18.9156 12.9885 18.6797V14.921L18.9885 20.921V26.5072H6.98849V6.5072ZM26.9885 26.5072H20.9885V20.5072C20.9886 20.3758 20.9628 20.2457 20.9126 20.1244C20.8624 20.003 20.7888 19.8926 20.696 19.7997L12.9885 12.0935V6.5072H16.9885V9.5072C16.9884 9.63856 17.0142 9.76866 17.0644 9.89005C17.1145 10.0114 17.1882 10.1218 17.281 10.2147L19.281 12.2147C19.0873 12.618 18.9873 13.0598 18.9885 13.5072C18.9885 14.1005 19.1644 14.6806 19.4941 15.1739C19.8237 15.6673 20.2923 16.0518 20.8404 16.2788C21.3886 16.5059 21.9918 16.5653 22.5738 16.4496C23.1557 16.3338 23.6903 16.0481 24.1098 15.6285C24.5294 15.209 24.8151 14.6744 24.9309 14.0925C25.0466 13.5105 24.9872 12.9073 24.7601 12.3592C24.5331 11.811 24.1486 11.3424 23.6552 11.0128C23.1619 10.6831 22.5818 10.5072 21.9885 10.5072C21.541 10.5064 21.0992 10.6068 20.696 10.801L18.9885 9.09345V6.5072H26.9885V26.5072ZM21.9885 12.5072C22.1863 12.5072 22.3796 12.5659 22.5441 12.6757C22.7085 12.7856 22.8367 12.9418 22.9124 13.1245C22.9881 13.3072 23.0079 13.5083 22.9693 13.7023C22.9307 13.8963 22.8355 14.0745 22.6956 14.2143C22.5557 14.3542 22.3776 14.4494 22.1836 14.488C21.9896 14.5266 21.7885 14.5068 21.6058 14.4311C21.4231 14.3554 21.2669 14.2272 21.157 14.0628C21.0471 13.8983 20.9885 13.705 20.9885 13.5072C20.9885 13.242 21.0939 12.9876 21.2814 12.8001C21.4689 12.6126 21.7233 12.5072 21.9885 12.5072Z" fill="#D9DCD6"/>
</svg>
