<svg width="56" height="56" viewBox="0 0 56 56" fill="none" xmlns="http://www.w3.org/2000/svg">
<path d="M36.75 33.25C36.75 33.7141 36.5656 34.1592 36.2374 34.4874C35.9093 34.8156 35.4641 35 35 35H21C20.5359 35 20.0908 34.8156 19.7626 34.4874C19.4344 34.1592 19.25 33.7141 19.25 33.25C19.25 32.7859 19.4344 32.3407 19.7626 32.0126C20.0908 31.6844 20.5359 31.5 21 31.5H35C35.4641 31.5 35.9093 31.6844 36.2374 32.0126C36.5656 32.3407 36.75 32.7859 36.75 33.25ZM35 24.5H21C20.5359 24.5 20.0908 24.6844 19.7626 25.0126C19.4344 25.3407 19.25 25.7859 19.25 26.25C19.25 26.7141 19.4344 27.1592 19.7626 27.4874C20.0908 27.8156 20.5359 28 21 28H35C35.4641 28 35.9093 27.8156 36.2374 27.4874C36.5656 27.1592 36.75 26.7141 36.75 26.25C36.75 25.7859 36.5656 25.3407 36.2374 25.0126C35.9093 24.6844 35.4641 24.5 35 24.5ZM47.25 10.5V47.25C47.25 48.1782 46.8812 49.0685 46.2249 49.7249C45.5685 50.3812 44.6783 50.75 43.75 50.75H12.25C11.3217 50.75 10.4315 50.3812 9.77513 49.7249C9.11875 49.0685 8.75 48.1782 8.75 47.25V10.5C8.75 9.57173 9.11875 8.68149 9.77513 8.02511C10.4315 7.36874 11.3217 6.99999 12.25 6.99999H20.1819C21.1652 5.89907 22.3699 5.01824 23.7172 4.41515C25.0644 3.81206 26.5239 3.50031 28 3.50031C29.4761 3.50031 30.9356 3.81206 32.2828 4.41515C33.6301 5.01824 34.8348 5.89907 35.8181 6.99999H43.75C44.6783 6.99999 45.5685 7.36874 46.2249 8.02511C46.8812 8.68149 47.25 9.57173 47.25 10.5ZM21 14H35C35 12.1435 34.2625 10.363 32.9497 9.05024C31.637 7.73749 29.8565 6.99999 28 6.99999C26.1435 6.99999 24.363 7.73749 23.0503 9.05024C21.7375 10.363 21 12.1435 21 14ZM43.75 10.5H37.8984C38.2965 11.624 38.5 12.8076 38.5 14V15.75C38.5 16.2141 38.3156 16.6592 37.9874 16.9874C37.6593 17.3156 37.2141 17.5 36.75 17.5H19.25C18.7859 17.5 18.3408 17.3156 18.0126 16.9874C17.6844 16.6592 17.5 16.2141 17.5 15.75V14C17.5 12.8076 17.7035 11.624 18.1016 10.5H12.25V47.25H43.75V10.5Z" fill="url(#paint0_linear_11_73)"/>
<defs>
<linearGradient id="paint0_linear_11_73" x1="28" y1="3.50031" x2="28" y2="50.75" gradientUnits="userSpaceOnUse">
<stop stop-color="#1A88C7"/>
<stop offset="1" stop-color="#81C4D7" stop-opacity="0.48"/>
</linearGradient>
</defs>
</svg>
