<svg width="33" height="33" viewBox="0 0 33 33" fill="none" xmlns="http://www.w3.org/2000/svg">
<path d="M21.1547 19.6362C21.1547 19.9014 21.0494 20.1557 20.8618 20.3433C20.6743 20.5308 20.4199 20.6362 20.1547 20.6362H12.1547C11.8895 20.6362 11.6352 20.5308 11.4476 20.3433C11.2601 20.1557 11.1547 19.9014 11.1547 19.6362C11.1547 19.371 11.2601 19.1166 11.4476 18.9291C11.6352 18.7415 11.8895 18.6362 12.1547 18.6362H20.1547C20.4199 18.6362 20.6743 18.7415 20.8618 18.9291C21.0494 19.1166 21.1547 19.371 21.1547 19.6362ZM20.1547 14.6362H12.1547C11.8895 14.6362 11.6352 14.7415 11.4476 14.9291C11.2601 15.1166 11.1547 15.371 11.1547 15.6362C11.1547 15.9014 11.2601 16.1557 11.4476 16.3433C11.6352 16.5308 11.8895 16.6362 12.1547 16.6362H20.1547C20.4199 16.6362 20.6743 16.5308 20.8618 16.3433C21.0494 16.1557 21.1547 15.9014 21.1547 15.6362C21.1547 15.371 21.0494 15.1166 20.8618 14.9291C20.6743 14.7415 20.4199 14.6362 20.1547 14.6362ZM27.1547 6.63617V27.6362C27.1547 28.1666 26.944 28.6753 26.5689 29.0504C26.1939 29.4255 25.6852 29.6362 25.1547 29.6362H7.15473C6.6243 29.6362 6.11559 29.4255 5.74051 29.0504C5.36544 28.6753 5.15473 28.1666 5.15473 27.6362V6.63617C5.15473 6.10574 5.36544 5.59703 5.74051 5.22196C6.11559 4.84689 6.6243 4.63617 7.15473 4.63617H11.6872C12.2491 4.00708 12.9375 3.50374 13.7074 3.15912C14.4773 2.8145 15.3112 2.63635 16.1547 2.63635C16.9982 2.63635 17.8322 2.8145 18.6021 3.15912C19.3719 3.50374 20.0603 4.00708 20.6222 4.63617H25.1547C25.6852 4.63617 26.1939 4.84689 26.5689 5.22196C26.944 5.59703 27.1547 6.10574 27.1547 6.63617ZM12.1547 8.63617H20.1547C20.1547 7.57531 19.7333 6.55789 18.9832 5.80774C18.233 5.0576 17.2156 4.63617 16.1547 4.63617C15.0939 4.63617 14.0764 5.0576 13.3263 5.80774C12.5762 6.55789 12.1547 7.57531 12.1547 8.63617ZM25.1547 6.63617H21.811C22.0385 7.27844 22.1547 7.95481 22.1547 8.63617V9.63617C22.1547 9.90139 22.0494 10.1557 21.8618 10.3433C21.6743 10.5308 21.4199 10.6362 21.1547 10.6362H11.1547C10.8895 10.6362 10.6352 10.5308 10.4476 10.3433C10.2601 10.1557 10.1547 9.90139 10.1547 9.63617V8.63617C10.1548 7.95481 10.271 7.27844 10.4985 6.63617H7.15473V27.6362H25.1547V6.63617Z" fill="#D9DCD6"/>
</svg>
