<svg width="28" height="28" viewBox="0 0 28 28" fill="none" xmlns="http://www.w3.org/2000/svg">
<path d="M11.375 15.3124C11.375 15.572 11.298 15.8258 11.1538 16.0416C11.0096 16.2575 10.8046 16.4257 10.5648 16.525C10.3249 16.6244 10.061 16.6504 9.80645 16.5997C9.55185 16.5491 9.31798 16.4241 9.13443 16.2405C8.95087 16.057 8.82587 15.8231 8.77522 15.5685C8.72458 15.3139 8.75057 15.05 8.84991 14.8102C8.94925 14.5703 9.11748 14.3654 9.33332 14.2211C9.54916 14.0769 9.80292 13.9999 10.0625 13.9999C10.4106 13.9999 10.7444 14.1382 10.9906 14.3844C11.2367 14.6305 11.375 14.9643 11.375 15.3124ZM17.9375 13.9999C17.6779 13.9999 17.4242 14.0769 17.2083 14.2211C16.9925 14.3654 16.8243 14.5703 16.7249 14.8102C16.6256 15.05 16.5996 15.3139 16.6502 15.5685C16.7009 15.8231 16.8259 16.057 17.0094 16.2405C17.193 16.4241 17.4268 16.5491 17.6814 16.5997C17.936 16.6504 18.1999 16.6244 18.4398 16.525C18.6796 16.4257 18.8846 16.2575 19.0288 16.0416C19.173 15.8258 19.25 15.572 19.25 15.3124C19.25 14.9643 19.1117 14.6305 18.8656 14.3844C18.6194 14.1382 18.2856 13.9999 17.9375 13.9999ZM26.0805 21.0984L18.7523 24.3479C18.532 24.4459 18.2939 24.4977 18.0528 24.5003C17.8117 24.5029 17.5726 24.4561 17.3502 24.3629C17.1278 24.2697 16.9268 24.132 16.7596 23.9582C16.5924 23.7845 16.4625 23.5784 16.3778 23.3526L15.4908 20.9463C15.0008 20.9792 14.5039 20.9959 14 20.9967C13.4961 20.9974 12.9992 20.9806 12.5092 20.9463L11.6222 23.3526C11.5374 23.5783 11.4074 23.7843 11.2402 23.9579C11.0729 24.1316 10.872 24.2693 10.6496 24.3625C10.4273 24.4557 10.1882 24.5024 9.94714 24.4999C9.70606 24.4974 9.46803 24.4457 9.24766 24.3479L1.91954 21.0984C1.5413 20.933 1.23407 20.6387 1.05259 20.2679C0.871109 19.8972 0.827169 19.474 0.928598 19.0738L4.15625 6.34369C4.24144 6.01262 4.42131 5.71357 4.67386 5.48317C4.9264 5.25278 5.24065 5.10102 5.57813 5.0465L9.52219 4.3979C9.95699 4.32797 10.4022 4.42225 10.7714 4.66241C11.1405 4.90257 11.4071 5.27144 11.5194 5.69728L11.8759 7.10165C12.5708 7.03384 13.2789 6.99994 14 6.99994C14.7211 6.99994 15.4284 7.03384 16.1219 7.10165L16.4784 5.69728C16.5905 5.27131 16.857 4.90229 17.2262 4.66209C17.5954 4.42189 18.0408 4.32772 18.4756 4.3979L22.4219 5.0465C22.7594 5.10102 23.0736 5.25278 23.3261 5.48317C23.5787 5.71357 23.7586 6.01262 23.8438 6.34369L27.0736 19.0727C27.1752 19.4733 27.1311 19.8969 26.9491 20.268C26.7672 20.639 26.4593 20.9333 26.0805 21.0984ZM25.375 19.4993L22.1452 6.78119C22.1452 6.78119 22.1452 6.78119 22.1364 6.78119L18.1923 6.12494C18.1895 6.1233 18.1863 6.12244 18.1831 6.12244C18.1798 6.12244 18.1766 6.1233 18.1738 6.12494L17.8642 7.34337C18.4111 7.44619 18.958 7.56869 19.4863 7.71744C19.6945 7.77052 19.876 7.89842 19.996 8.07672C20.116 8.25503 20.1662 8.47127 20.137 8.68421C20.1078 8.89715 20.0012 9.0919 19.8377 9.23131C19.6741 9.37071 19.4649 9.44503 19.25 9.44009C19.1701 9.43987 19.0907 9.42883 19.0138 9.40728C17.3796 8.96386 15.6932 8.74275 14 8.74994C12.3069 8.74239 10.6204 8.96313 8.98625 9.40619C8.87462 9.4407 8.75721 9.4525 8.64094 9.4409C8.52467 9.4293 8.4119 9.39453 8.30929 9.33864C8.20667 9.28275 8.11629 9.20687 8.04348 9.11549C7.97067 9.0241 7.91689 8.91906 7.88533 8.80655C7.85377 8.69405 7.84507 8.57637 7.85973 8.46044C7.87439 8.34452 7.91212 8.23271 7.97069 8.1316C8.02926 8.0305 8.10749 7.94215 8.20076 7.87176C8.29404 7.80138 8.40046 7.7504 8.51375 7.72181C9.04094 7.57306 9.58344 7.45056 10.1347 7.34775L9.82516 6.12494C9.82516 6.12494 9.82516 6.12494 9.81203 6.12494L5.8636 6.77353C5.86038 6.77264 5.85698 6.77264 5.85375 6.77353L2.625 19.5048L9.95313 22.7499C9.95682 22.7519 9.96096 22.753 9.96516 22.753C9.96936 22.753 9.9735 22.7519 9.97719 22.7499L10.7188 20.7506C9.97576 20.6369 9.24019 20.4791 8.51594 20.2781C8.30022 20.2091 8.11963 20.0593 8.01213 19.8599C7.90463 19.6606 7.87859 19.4274 7.9395 19.2093C8.0004 18.9911 8.1435 18.8051 8.33871 18.6903C8.53392 18.5755 8.76603 18.5409 8.98625 18.5937C10.6203 19.0373 12.3068 19.258 14 19.2499C15.6932 19.258 17.3797 19.0373 19.0138 18.5937C19.2373 18.531 19.4765 18.5597 19.6789 18.6735C19.8812 18.7872 20.0301 18.9767 20.0927 19.2002C20.1554 19.4237 20.1267 19.6629 20.013 19.8653C19.8992 20.0676 19.7098 20.2165 19.4863 20.2792C18.7613 20.4799 18.025 20.6373 17.2813 20.7506L18.0195 22.7499C18.0231 22.7518 18.027 22.7529 18.031 22.7529C18.035 22.7529 18.039 22.7518 18.0425 22.7499L25.375 19.4993Z" fill="#F5F5F5"/>
</svg>
