<svg width="241" height="59" viewBox="0 0 241 59" fill="none" xmlns="http://www.w3.org/2000/svg">
<mask id="mask0_90_1447" style="mask-type:luminance" maskUnits="userSpaceOnUse" x="0" y="15" width="31" height="31">
<path d="M30.5493 15.1714H0V45.5143H30.5493V15.1714Z" fill="white"/>
</mask>
<g mask="url(#mask0_90_1447)">
<path fill-rule="evenodd" clip-rule="evenodd" d="M1.63287 15.5235C1.25131 15.7166 0.750585 16.1299 0.52015 16.442C0.108039 16.9998 0.100149 17.2219 0.0445127 30.0059C-0.00687481 41.8477 0.0184134 43.0698 0.329774 43.7595C0.521971 44.1853 0.989316 44.7127 1.39799 44.9651C2.1243 45.4138 2.1243 45.4138 14.5666 45.4799C23.3797 45.5269 27.3165 45.4791 28.0639 45.3165C28.8133 45.1532 29.2659 44.9133 29.6265 44.4877C29.9056 44.1581 30.2307 43.5317 30.349 43.0956C30.4928 42.5651 30.5447 38.1674 30.506 29.7923C30.4481 17.2814 30.4481 17.2814 29.9897 16.5491C29.7375 16.1466 29.2231 15.6718 28.8463 15.4941C28.2398 15.2082 26.6882 15.1714 15.2441 15.1718C3.34586 15.172 2.27178 15.1998 1.63287 15.5235ZM10.6552 25.5153C8.13299 28.0169 6.0694 30.162 6.0694 30.2822C6.0694 30.4024 8.12612 32.5366 10.6399 35.0248L15.2103 39.5487L19.8951 34.8955L24.58 30.2424L19.9107 25.6045L15.2413 20.9667L10.6552 25.5153ZM36.3053 25.2724C36.2513 25.4125 36.2328 27.8315 36.2646 30.6476L36.3224 35.7683L36.3694 30.4979L36.4165 25.2274L40.311 25.1682L44.2055 25.109L40.3047 25.0634C37.3082 25.0285 36.3808 25.0769 36.3053 25.2724ZM44.7109 25.1686C44.7109 25.2513 45.189 25.2931 45.7732 25.2611C46.3574 25.2292 47.0176 25.1738 47.2401 25.1377C47.4627 25.102 46.9848 25.0602 46.178 25.0452C45.3711 25.03 44.7113 25.0858 44.7109 25.1686ZM52.9358 25.1686C52.8841 25.2513 53.3111 25.2931 53.8849 25.2611C54.4587 25.2292 55.1101 25.1738 55.3326 25.1377C55.5553 25.102 55.1281 25.0602 54.3837 25.0452C53.6391 25.03 52.9876 25.0858 52.9358 25.1686ZM59.2079 25.1686C59.1563 25.2513 59.7341 25.3193 60.4917 25.3193C61.2493 25.3193 61.8269 25.2513 61.7753 25.1686C61.724 25.0858 61.1461 25.0179 60.4917 25.0179C59.8372 25.0179 59.2594 25.0858 59.2079 25.1686ZM67.0569 25.2724C67.0029 25.4125 66.9844 27.8315 67.0163 30.6476L67.074 35.7683L67.121 30.4765L67.1681 25.1844L68.4644 25.2518C69.1774 25.2889 69.7181 25.2513 69.6663 25.1686C69.6144 25.0858 69.028 25.0179 68.3637 25.0179C67.5749 25.0179 67.121 25.1062 67.0569 25.2724ZM81.2846 25.165C81.7604 25.2077 82.4887 25.2072 82.9032 25.1638C83.3174 25.1207 82.9281 25.086 82.0379 25.0866C81.1478 25.0873 80.8088 25.1227 81.2846 25.165ZM89.1802 25.1677C90.3268 25.2036 92.1475 25.2035 93.2266 25.1675C94.3055 25.1313 93.3675 25.102 91.1421 25.1021C88.9166 25.1023 88.0337 25.132 89.1802 25.1677ZM96.8068 25.1377C97.0295 25.1738 97.6809 25.2292 98.2547 25.2611C98.8283 25.2931 99.2555 25.2513 99.2038 25.1686C99.1518 25.0858 98.5004 25.03 97.7559 25.0452C97.0113 25.0602 96.5843 25.102 96.8068 25.1377ZM103.224 27.6803L103.268 30.3429L103.331 27.7902C103.394 25.2377 103.394 25.2377 104.653 25.1665C105.911 25.0952 105.911 25.0952 104.545 25.0566C103.18 25.0179 103.18 25.0179 103.224 27.6803ZM108.993 25.1611L110.254 25.2378L110.313 30.503L110.372 35.7683L110.367 30.4433L110.362 25.1183L109.047 25.1013C107.732 25.0843 107.732 25.0843 108.993 25.1611ZM114.267 25.1677C115.414 25.2036 117.234 25.2035 118.313 25.1675C119.392 25.1313 118.454 25.102 116.229 25.1021C114.004 25.1023 113.121 25.132 114.267 25.1677ZM79.7788 25.3528C79.853 25.4263 79.9745 25.4263 80.0487 25.3528C80.1227 25.279 80.0621 25.2188 79.9137 25.2188C79.7654 25.2188 79.7048 25.279 79.7788 25.3528ZM84.432 25.3528C84.5063 25.4263 84.6277 25.4263 84.7018 25.3528C84.7758 25.279 84.7152 25.2188 84.5669 25.2188C84.4186 25.2188 84.358 25.279 84.432 25.3528ZM47.5435 25.5202C47.5435 25.5755 47.5892 25.6207 47.6447 25.6207C47.7004 25.6207 47.7458 25.5755 47.7458 25.5202C47.7458 25.4649 47.7004 25.4197 47.6447 25.4197C47.5892 25.4197 47.5435 25.4649 47.5435 25.5202ZM79.1045 25.5202C79.1045 25.5755 79.15 25.6207 79.2057 25.6207C79.2613 25.6207 79.3068 25.5755 79.3068 25.5202C79.3068 25.4649 79.2613 25.4197 79.2057 25.4197C79.15 25.4197 79.1045 25.4649 79.1045 25.5202ZM94.9399 26.2235C94.9399 26.7208 94.9793 26.9244 95.0277 26.6756C95.0759 26.4268 95.0759 26.0202 95.0277 25.7714C94.9793 25.5226 94.9399 25.7262 94.9399 26.2235ZM44.9136 25.8216C44.9136 25.9689 44.9742 26.0291 45.0485 25.9556C45.1225 25.8818 45.1225 25.7613 45.0485 25.6876C44.9742 25.6139 44.9136 25.6743 44.9136 25.8216ZM52.6015 25.7211C52.6015 25.7764 52.647 25.8216 52.7026 25.8216C52.7583 25.8216 52.8038 25.7764 52.8038 25.7211C52.8038 25.6658 52.7583 25.6207 52.7026 25.6207C52.647 25.6207 52.6015 25.6658 52.6015 25.7211ZM55.4339 25.7211C55.4339 25.7764 55.4794 25.8216 55.5351 25.8216C55.5906 25.8216 55.6362 25.7764 55.6362 25.7211C55.6362 25.6658 55.5906 25.6207 55.5351 25.6207C55.4794 25.6207 55.4339 25.6658 55.4339 25.7211ZM58.8731 25.7211C58.8731 25.7764 58.9187 25.8216 58.9742 25.8216C59.0299 25.8216 59.0754 25.7764 59.0754 25.7211C59.0754 25.6658 59.0299 25.6207 58.9742 25.6207C58.9187 25.6207 58.8731 25.6658 58.8731 25.7211ZM61.9078 25.7211C61.9078 25.7764 61.9533 25.8216 62.009 25.8216C62.0646 25.8216 62.1101 25.7764 62.1101 25.7211C62.1101 25.6658 62.0646 25.6207 62.009 25.6207C61.9533 25.6207 61.9078 25.6658 61.9078 25.7211ZM78.6999 25.7211C78.6999 25.7764 78.7454 25.8216 78.8011 25.8216C78.8566 25.8216 78.9022 25.7764 78.9022 25.7211C78.9022 25.6658 78.8566 25.6207 78.8011 25.6207C78.7454 25.6207 78.6999 25.6658 78.6999 25.7211ZM99.4369 25.8216C99.5057 25.932 99.6075 26.0225 99.6632 26.0225C99.7188 26.0225 99.708 25.932 99.6392 25.8216C99.5705 25.711 99.4687 25.6207 99.413 25.6207C99.3575 25.6207 99.3682 25.711 99.4369 25.8216ZM47.7458 26.123C47.7458 26.1783 47.7915 26.2235 47.8472 26.2235C47.9027 26.2235 47.9483 26.1783 47.9483 26.123C47.9483 26.0677 47.9027 26.0225 47.8472 26.0225C47.7915 26.0225 47.7458 26.0677 47.7458 26.123ZM55.2314 26.123C55.2314 26.1783 55.2771 26.2235 55.3326 26.2235C55.3883 26.2235 55.4339 26.1783 55.4339 26.123C55.4339 26.0677 55.3883 26.0225 55.3326 26.0225C55.2771 26.0225 55.2314 26.0677 55.2314 26.123ZM58.6708 26.2235C58.6708 26.3708 58.7315 26.431 58.8057 26.3575C58.8799 26.2838 58.8799 26.1631 58.8057 26.0895C58.7315 26.016 58.6708 26.0761 58.6708 26.2235ZM77.8905 26.123C77.8905 26.1783 77.9362 26.2235 77.9917 26.2235C78.0473 26.2235 78.0928 26.1783 78.0928 26.123C78.0928 26.0677 78.0473 26.0225 77.9917 26.0225C77.9362 26.0225 77.8905 26.0677 77.8905 26.123ZM45.1159 26.3239C45.1159 26.3792 45.1614 26.4244 45.217 26.4244C45.2727 26.4244 45.3182 26.3792 45.3182 26.3239C45.3182 26.2687 45.2727 26.2235 45.217 26.2235C45.1614 26.2235 45.1159 26.2687 45.1159 26.3239ZM52.3992 26.3239C52.3992 26.3792 52.4447 26.4244 52.5003 26.4244C52.556 26.4244 52.6015 26.3792 52.6015 26.3239C52.6015 26.2687 52.556 26.2235 52.5003 26.2235C52.4447 26.2235 52.3992 26.2687 52.3992 26.3239ZM62.1101 26.3239C62.1101 26.3792 62.1556 26.4244 62.2113 26.4244C62.2669 26.4244 62.3124 26.3792 62.3124 26.3239C62.3124 26.2687 62.2669 26.2235 62.2113 26.2235C62.1556 26.2235 62.1101 26.2687 62.1101 26.3239ZM99.8416 26.4244C99.9103 26.535 100.012 26.6253 100.068 26.6253C100.123 26.6253 100.113 26.535 100.044 26.4244C99.9751 26.3138 99.8733 26.2235 99.8176 26.2235C99.7621 26.2235 99.7728 26.3138 99.8416 26.4244ZM77.066 26.977C76.5755 27.5296 76.5755 27.5296 77.1319 27.0426C77.4379 26.7745 77.6882 26.5259 77.6882 26.49C77.6882 26.4539 77.6585 26.4244 77.6224 26.4244C77.5861 26.4244 77.3359 26.6732 77.066 26.977ZM45.3182 26.8263C45.3182 26.9736 45.3788 27.0338 45.4531 26.9603C45.5271 26.8866 45.5271 26.7659 45.4531 26.6923C45.3788 26.6188 45.3182 26.679 45.3182 26.8263ZM47.9483 26.7258C47.9483 26.7811 47.9938 26.8263 48.0495 26.8263C48.105 26.8263 48.1506 26.7811 48.1506 26.7258C48.1506 26.6705 48.105 26.6253 48.0495 26.6253C47.9938 26.6253 47.9483 26.6705 47.9483 26.7258ZM55.0291 26.7258C55.0291 26.7811 55.0748 26.8263 55.1303 26.8263C55.1859 26.8263 55.2314 26.7811 55.2314 26.7258C55.2314 26.6705 55.1859 26.6253 55.1303 26.6253C55.0748 26.6253 55.0291 26.6705 55.0291 26.7258ZM58.4685 26.7258C58.4685 26.7811 58.5141 26.8263 58.5696 26.8263C58.6253 26.8263 58.6708 26.7811 58.6708 26.7258C58.6708 26.6705 58.6253 26.6253 58.5696 26.6253C58.5141 26.6253 58.4685 26.6705 58.4685 26.7258ZM62.3124 26.7258C62.3124 26.7811 62.3581 26.8263 62.4136 26.8263C62.4692 26.8263 62.5147 26.7811 62.5147 26.7258C62.5147 26.6705 62.4692 26.6253 62.4136 26.6253C62.3581 26.6253 62.3124 26.6705 62.3124 26.7258ZM52.1969 26.9268C52.1969 26.982 52.2424 27.0272 52.298 27.0272C52.3535 27.0272 52.3992 26.982 52.3992 26.9268C52.3992 26.8715 52.3535 26.8263 52.298 26.8263C52.2424 26.8263 52.1969 26.8715 52.1969 26.9268ZM100.246 27.0272C100.315 27.1378 100.417 27.2282 100.472 27.2282C100.528 27.2282 100.517 27.1378 100.448 27.0272C100.38 26.9166 100.278 26.8263 100.222 26.8263C100.167 26.8263 100.177 26.9166 100.246 27.0272ZM48.1506 27.2282C48.1506 27.3755 48.2112 27.4358 48.2855 27.3622C48.3595 27.2885 48.3595 27.168 48.2855 27.0941C48.2112 27.0206 48.1506 27.0808 48.1506 27.2282ZM54.8268 27.1277C54.8268 27.183 54.8725 27.2282 54.928 27.2282C54.9836 27.2282 55.0291 27.183 55.0291 27.1277C55.0291 27.0724 54.9836 27.0272 54.928 27.0272C54.8725 27.0272 54.8268 27.0724 54.8268 27.1277ZM58.2662 27.2282C58.2662 27.3755 58.3269 27.4358 58.4011 27.3622C58.4753 27.2885 58.4753 27.168 58.4011 27.0941C58.3269 27.0206 58.2662 27.0808 58.2662 27.2282ZM41.4742 27.4291L38.743 27.5474L41.4118 27.5887C43.019 27.6137 44.1302 27.5501 44.2055 27.4291C44.2743 27.3187 44.3024 27.2467 44.268 27.2696C44.2335 27.2922 42.9764 27.364 41.4742 27.4291ZM45.5205 27.3286C45.5205 27.3839 45.566 27.4291 45.6216 27.4291C45.6773 27.4291 45.7228 27.3839 45.7228 27.3286C45.7228 27.2733 45.6773 27.2282 45.6216 27.2282C45.566 27.2282 45.5205 27.2733 45.5205 27.3286ZM51.9946 27.4291C51.9946 27.5764 52.0552 27.6368 52.1295 27.5631C52.2035 27.4894 52.2035 27.3689 52.1295 27.2951C52.0552 27.2216 51.9946 27.2818 51.9946 27.4291ZM62.5147 27.3286C62.5147 27.3839 62.5604 27.4291 62.6159 27.4291C62.6715 27.4291 62.717 27.3839 62.717 27.3286C62.717 27.2733 62.6715 27.2282 62.6159 27.2282C62.5604 27.2282 62.5147 27.2733 62.5147 27.3286ZM92.4605 27.3787C91.0717 27.4136 89.8696 27.5071 89.7895 27.5865C89.7094 27.6656 90.8684 27.703 92.3655 27.6695C93.8978 27.6351 95.0872 27.5252 95.0872 27.4183C95.0872 27.3138 95.0645 27.2477 95.0367 27.2717C95.0087 27.2956 93.8496 27.3438 92.4605 27.3787ZM81.4816 27.571C81.7319 27.6189 82.1418 27.6189 82.3921 27.571C82.6423 27.523 82.4376 27.4837 81.9368 27.4837C81.4361 27.4837 81.2313 27.523 81.4816 27.571ZM100.651 27.63C100.72 27.7406 100.821 27.831 100.877 27.831C100.933 27.831 100.922 27.7406 100.853 27.63C100.784 27.5196 100.683 27.4291 100.627 27.4291C100.571 27.4291 100.582 27.5196 100.651 27.63ZM116.178 27.5783C116.929 27.6169 118.159 27.6169 118.91 27.5783C119.661 27.5395 119.046 27.508 117.544 27.508C116.042 27.508 115.427 27.5395 116.178 27.5783ZM45.7228 27.831C45.7228 27.9783 45.7836 28.0387 45.8577 27.965C45.9317 27.8913 45.9317 27.7708 45.8577 27.697C45.7836 27.6235 45.7228 27.6838 45.7228 27.831ZM48.3529 27.7305C48.3529 27.7858 48.3984 27.831 48.4541 27.831C48.5096 27.831 48.5552 27.7858 48.5552 27.7305C48.5552 27.6752 48.5096 27.63 48.4541 27.63C48.3984 27.63 48.3529 27.6752 48.3529 27.7305ZM54.6245 27.7305C54.6245 27.7858 54.6702 27.831 54.7257 27.831C54.7813 27.831 54.8268 27.7858 54.8268 27.7305C54.8268 27.6752 54.7813 27.63 54.7257 27.63C54.6702 27.63 54.6245 27.6752 54.6245 27.7305ZM58.0639 27.7305C58.0639 27.7858 58.1093 27.831 58.165 27.831C58.2207 27.831 58.2662 27.7858 58.2662 27.7305C58.2662 27.6752 58.2207 27.63 58.165 27.63C58.1093 27.63 58.0639 27.6752 58.0639 27.7305ZM62.717 27.7305C62.717 27.7858 62.7627 27.831 62.8182 27.831C62.8738 27.831 62.9193 27.7858 62.9193 27.7305C62.9193 27.6752 62.8738 27.63 62.8182 27.63C62.7627 27.63 62.717 27.6752 62.717 27.7305ZM76.3541 27.8622C76.2645 28.0058 76.2984 28.0397 76.443 27.9507C76.5715 27.8718 76.6767 27.7676 76.6767 27.7187C76.6767 27.6698 76.6367 27.63 76.5874 27.63C76.5384 27.63 76.4333 27.7346 76.3541 27.8622ZM80.116 27.7305C80.116 27.7858 80.1615 27.831 80.2172 27.831C80.2729 27.831 80.3183 27.7858 80.3183 27.7305C80.3183 27.6752 80.2729 27.63 80.2172 27.63C80.1615 27.63 80.116 27.6752 80.116 27.7305ZM83.7577 27.7305C83.7577 27.7858 83.8032 27.831 83.8588 27.831C83.9145 27.831 83.96 27.7858 83.96 27.7305C83.96 27.6752 83.9145 27.63 83.8588 27.63C83.8032 27.63 83.7577 27.6752 83.7577 27.7305ZM84.7692 27.831C84.5869 27.948 84.5618 28.027 84.7067 28.029C84.8393 28.0306 85.0039 27.9416 85.0727 27.831C85.1416 27.7206 85.1696 27.6316 85.1353 27.6331C85.1008 27.6349 84.9362 27.7239 84.7692 27.831ZM51.7923 28.0319C51.7923 28.1792 51.8529 28.2396 51.9272 28.1659C52.0012 28.0923 52.0012 27.9717 51.9272 27.8979C51.8529 27.8244 51.7923 27.8847 51.7923 28.0319ZM79.7114 27.9314C79.7114 27.9867 79.7569 28.0319 79.8126 28.0319C79.8683 28.0319 79.9137 27.9867 79.9137 27.9314C79.9137 27.8763 79.8683 27.831 79.8126 27.831C79.7569 27.831 79.7114 27.8763 79.7114 27.9314ZM54.4222 28.1324C54.4222 28.1877 54.4677 28.2328 54.5234 28.2328C54.579 28.2328 54.6245 28.1877 54.6245 28.1324C54.6245 28.0773 54.579 28.0319 54.5234 28.0319C54.4677 28.0319 54.4222 28.0773 54.4222 28.1324ZM57.8616 28.2328C57.8616 28.3802 57.9223 28.4405 57.9965 28.367C58.0706 28.2932 58.0706 28.1727 57.9965 28.0988C57.9223 28.0253 57.8616 28.0857 57.8616 28.2328ZM79.3068 28.1324C79.3068 28.1877 79.3523 28.2328 79.408 28.2328C79.4636 28.2328 79.5091 28.1877 79.5091 28.1324C79.5091 28.0773 79.4636 28.0319 79.408 28.0319C79.3523 28.0319 79.3068 28.0773 79.3068 28.1324ZM101.055 28.2328C101.124 28.3434 101.226 28.4338 101.282 28.4338C101.337 28.4338 101.327 28.3434 101.258 28.2328C101.189 28.1224 101.087 28.0319 101.032 28.0319C100.976 28.0319 100.987 28.1224 101.055 28.2328ZM45.9251 28.3333C45.9251 28.3886 45.9706 28.4338 46.0263 28.4338C46.0819 28.4338 46.1274 28.3886 46.1274 28.3333C46.1274 28.2782 46.0819 28.2328 46.0263 28.2328C45.9706 28.2328 45.9251 28.2782 45.9251 28.3333ZM48.5552 28.3333C48.5552 28.3886 48.6007 28.4338 48.6564 28.4338C48.712 28.4338 48.7575 28.3886 48.7575 28.3333C48.7575 28.2782 48.712 28.2328 48.6564 28.2328C48.6007 28.2328 48.5552 28.2782 48.5552 28.3333ZM60.3568 28.367C60.4309 28.4405 60.5523 28.4405 60.6266 28.367C60.7006 28.2932 60.64 28.2328 60.4917 28.2328C60.3433 28.2328 60.2826 28.2932 60.3568 28.367ZM62.9193 28.3333C62.9193 28.3886 62.965 28.4338 63.0205 28.4338C63.0762 28.4338 63.1218 28.3886 63.1218 28.3333C63.1218 28.2782 63.0762 28.2328 63.0205 28.2328C62.965 28.2328 62.9193 28.2782 62.9193 28.3333ZM89.6408 28.5509C89.6505 28.7851 89.6983 28.8328 89.763 28.6726C89.8214 28.5275 89.8141 28.354 89.7469 28.2873C89.6798 28.2207 89.632 28.3392 89.6408 28.5509ZM51.5898 28.5344C51.5898 28.5895 51.6354 28.6349 51.6911 28.6349C51.7466 28.6349 51.7923 28.5895 51.7923 28.5344C51.7923 28.4791 51.7466 28.4338 51.6911 28.4338C51.6354 28.4338 51.5898 28.4791 51.5898 28.5344ZM76.0698 28.5344C76.0698 28.5895 76.1153 28.6349 76.1709 28.6349C76.2266 28.6349 76.2721 28.5895 76.2721 28.5344C76.2721 28.4791 76.2266 28.4338 76.1709 28.4338C76.1153 28.4338 76.0698 28.4791 76.0698 28.5344ZM46.1274 28.8358C46.1274 28.983 46.1882 29.0433 46.2623 28.9698C46.3363 28.896 46.3363 28.7755 46.2623 28.7016C46.1882 28.6281 46.1274 28.6885 46.1274 28.8358ZM48.7575 28.8358C48.7575 28.983 48.8181 29.0433 48.8925 28.9698C48.9665 28.896 48.9665 28.7755 48.8925 28.7016C48.8181 28.6281 48.7575 28.6885 48.7575 28.8358ZM54.2199 28.7354C54.2199 28.7905 54.2654 28.8358 54.3211 28.8358C54.3767 28.8358 54.4222 28.7905 54.4222 28.7354C54.4222 28.6801 54.3767 28.6349 54.3211 28.6349C54.2654 28.6349 54.2199 28.6801 54.2199 28.7354ZM57.6593 28.7354C57.6593 28.7905 57.7047 28.8358 57.7604 28.8358C57.8161 28.8358 57.8616 28.7905 57.8616 28.7354C57.8616 28.6801 57.8161 28.6349 57.7604 28.6349C57.7047 28.6349 57.6593 28.6801 57.6593 28.7354ZM60.0871 28.8358C60.0871 28.983 60.1477 29.0433 60.222 28.9698C60.296 28.896 60.296 28.7755 60.222 28.7016C60.1477 28.6281 60.0871 28.6885 60.0871 28.8358ZM60.694 28.8358C60.694 28.983 60.7546 29.0433 60.8289 28.9698C60.9029 28.896 60.9029 28.7755 60.8289 28.7016C60.7546 28.6281 60.694 28.6885 60.694 28.8358ZM63.1218 28.7354C63.1218 28.7905 63.1673 28.8358 63.223 28.8358C63.2785 28.8358 63.3241 28.7905 63.3241 28.7354C63.3241 28.6801 63.2785 28.6349 63.223 28.6349C63.1673 28.6349 63.1218 28.6801 63.1218 28.7354ZM78.6237 28.9441C78.5543 29.1236 78.5003 29.3309 78.5035 29.4048C78.5071 29.4786 78.6064 29.3741 78.7245 29.1723C78.8426 28.9705 78.8966 28.7632 78.8445 28.7116C78.7926 28.6597 78.693 28.7644 78.6237 28.9441ZM101.46 28.8358C101.529 28.9462 101.631 29.0368 101.686 29.0368C101.742 29.0368 101.731 28.9462 101.662 28.8358C101.594 28.7252 101.492 28.6349 101.436 28.6349C101.381 28.6349 101.391 28.7252 101.46 28.8358ZM38.8441 29.1372C38.8441 29.1924 38.8896 29.2377 38.9453 29.2377C39.0009 29.2377 39.0464 29.1924 39.0464 29.1372C39.0464 29.0819 39.0009 29.0368 38.9453 29.0368C38.8896 29.0368 38.8441 29.0819 38.8441 29.1372ZM51.3875 29.2377C51.3875 29.3849 51.4482 29.4452 51.5226 29.3717C51.5966 29.2979 51.5966 29.1774 51.5226 29.1037C51.4482 29.03 51.3875 29.0904 51.3875 29.2377ZM54.0176 29.1372C54.0176 29.1924 54.0631 29.2377 54.1188 29.2377C54.1744 29.2377 54.2199 29.1924 54.2199 29.1372C54.2199 29.0819 54.1744 29.0368 54.1188 29.0368C54.0631 29.0368 54.0176 29.0819 54.0176 29.1372ZM57.457 29.2377C57.457 29.3849 57.5177 29.4452 57.5919 29.3717C57.6659 29.2979 57.6659 29.1774 57.5919 29.1037C57.5177 29.03 57.457 29.0904 57.457 29.2377ZM75.8994 29.4386C75.8994 29.7149 75.9454 29.828 76.0014 29.6898C76.0576 29.5518 76.0576 29.3257 76.0014 29.1875C75.9454 29.0494 75.8994 29.1623 75.8994 29.4386ZM89.6247 29.1372C89.6247 29.1924 89.6703 29.2377 89.7258 29.2377C89.7815 29.2377 89.827 29.1924 89.827 29.1372C89.827 29.0819 89.7815 29.0368 89.7258 29.0368C89.6703 29.0368 89.6247 29.0819 89.6247 29.1372ZM46.3297 29.3382C46.3297 29.3935 46.3752 29.4386 46.4309 29.4386C46.4865 29.4386 46.532 29.3935 46.532 29.3382C46.532 29.2829 46.4865 29.2377 46.4309 29.2377C46.3752 29.2377 46.3297 29.2829 46.3297 29.3382ZM59.8848 29.4386C59.8848 29.586 59.9454 29.6462 60.0197 29.5727C60.0937 29.4988 60.0937 29.3783 60.0197 29.3046C59.9454 29.231 59.8848 29.2913 59.8848 29.4386ZM60.8963 29.4386C60.8963 29.586 60.9571 29.6462 61.0312 29.5727C61.1052 29.4988 61.1052 29.3783 61.0312 29.3046C60.9571 29.231 60.8963 29.2913 60.8963 29.4386ZM63.3241 29.3382C63.3241 29.3935 63.3696 29.4386 63.4253 29.4386C63.4808 29.4386 63.5264 29.3935 63.5264 29.3382C63.5264 29.2829 63.4808 29.2377 63.4253 29.2377C63.3696 29.2377 63.3241 29.2829 63.3241 29.3382ZM93.8734 30.3262C93.8734 31.0087 93.779 31.4522 93.6204 31.5159C93.4693 31.5765 93.5102 31.6237 93.7217 31.6331C94.0212 31.6466 94.0757 31.4637 94.0757 30.4433C94.0757 29.7802 94.0301 29.2377 93.9746 29.2377C93.9189 29.2377 93.8734 29.7276 93.8734 30.3262ZM48.9598 29.5391C48.9598 29.5944 49.0053 29.6396 49.061 29.6396C49.1167 29.6396 49.1621 29.5944 49.1621 29.5391C49.1621 29.4838 49.1167 29.4386 49.061 29.4386C49.0053 29.4386 48.9598 29.4838 48.9598 29.5391ZM102.067 29.6396C102.136 29.75 102.238 29.8405 102.293 29.8405C102.349 29.8405 102.338 29.75 102.269 29.6396C102.2 29.529 102.099 29.4386 102.043 29.4386C101.987 29.4386 101.998 29.529 102.067 29.6396ZM46.532 29.8405C46.532 29.9878 46.5928 30.048 46.6669 29.9745C46.7411 29.9007 46.7411 29.7802 46.6669 29.7065C46.5928 29.6328 46.532 29.6932 46.532 29.8405ZM51.1852 29.74C51.1852 29.7953 51.2308 29.8405 51.2863 29.8405C51.342 29.8405 51.3875 29.7953 51.3875 29.74C51.3875 29.6848 51.342 29.6396 51.2863 29.6396C51.2308 29.6396 51.1852 29.6848 51.1852 29.74ZM53.8153 29.74C53.8153 29.7953 53.8608 29.8405 53.9165 29.8405C53.9721 29.8405 54.0176 29.7953 54.0176 29.74C54.0176 29.6848 53.9721 29.6396 53.9165 29.6396C53.8608 29.6396 53.8153 29.6848 53.8153 29.74ZM57.2546 29.74C57.2546 29.7953 57.3001 29.8405 57.3558 29.8405C57.4115 29.8405 57.457 29.7953 57.457 29.74C57.457 29.6848 57.4115 29.6396 57.3558 29.6396C57.3001 29.6396 57.2546 29.6848 57.2546 29.74ZM63.5264 29.74C63.5264 29.7953 63.5719 29.8405 63.6276 29.8405C63.6831 29.8405 63.7287 29.7953 63.7287 29.74C63.7287 29.6848 63.6831 29.6396 63.6276 29.6396C63.5719 29.6396 63.5264 29.6848 63.5264 29.74ZM99.0532 29.807C98.9958 29.8992 99.0775 29.9745 99.2346 29.9745C99.3918 29.9745 99.4734 29.8992 99.4161 29.807C99.3589 29.7149 99.2771 29.6396 99.2346 29.6396C99.1922 29.6396 99.1104 29.7149 99.0532 29.807ZM49.1621 30.0414C49.1621 30.1888 49.2227 30.249 49.2971 30.1755C49.3711 30.1018 49.3711 29.9811 49.2971 29.9074C49.2227 29.8339 49.1621 29.8941 49.1621 30.0414ZM59.6825 30.0414C59.6825 30.1888 59.7431 30.249 59.8174 30.1755C59.8914 30.1018 59.8914 29.9811 59.8174 29.9074C59.7431 29.8339 59.6825 29.8941 59.6825 30.0414ZM61.0986 30.0414C61.0986 30.1888 61.1594 30.249 61.2335 30.1755C61.3075 30.1018 61.3075 29.9811 61.2335 29.9074C61.1594 29.8339 61.0986 29.8941 61.0986 30.0414ZM53.613 30.1419C53.613 30.1972 53.6585 30.2424 53.7142 30.2424C53.7698 30.2424 53.8153 30.1972 53.8153 30.1419C53.8153 30.0866 53.7698 30.0414 53.7142 30.0414C53.6585 30.0414 53.613 30.0866 53.613 30.1419ZM102.371 30.1419C102.371 30.1972 102.416 30.2424 102.472 30.2424C102.527 30.2424 102.573 30.1972 102.573 30.1419C102.573 30.0866 102.527 30.0414 102.472 30.0414C102.416 30.0414 102.371 30.0866 102.371 30.1419ZM11.3554 30.5937C11.508 30.7867 12.4267 31.7363 13.3966 32.7035C14.3667 33.6708 15.1877 34.4622 15.221 34.4622C15.2544 34.4622 16.2346 33.5128 17.399 32.3524L19.5159 30.2424H15.2969C11.3097 30.2424 11.093 30.2616 11.3554 30.5937ZM46.7343 30.3429C46.7343 30.3981 46.7798 30.4433 46.8355 30.4433C46.8911 30.4433 46.9366 30.3981 46.9366 30.3429C46.9366 30.2876 46.8911 30.2424 46.8355 30.2424C46.7798 30.2424 46.7343 30.2876 46.7343 30.3429ZM50.9829 30.3429C50.9829 30.3981 51.0285 30.4433 51.084 30.4433C51.1397 30.4433 51.1852 30.3981 51.1852 30.3429C51.1852 30.2876 51.1397 30.2424 51.084 30.2424C51.0285 30.2424 50.9829 30.2876 50.9829 30.3429ZM57.0523 30.3429C57.0523 30.3981 57.0978 30.4433 57.1535 30.4433C57.2092 30.4433 57.2546 30.3981 57.2546 30.3429C57.2546 30.2876 57.2092 30.2424 57.1535 30.2424C57.0978 30.2424 57.0523 30.2876 57.0523 30.3429ZM63.7287 30.3429C63.7287 30.3981 63.7742 30.4433 63.8299 30.4433C63.8855 30.4433 63.931 30.3981 63.931 30.3429C63.931 30.2876 63.8855 30.2424 63.8299 30.2424C63.7742 30.2424 63.7287 30.2876 63.7287 30.3429ZM78.2951 30.3429C78.2951 30.3981 78.3408 30.4433 78.3965 30.4433C78.452 30.4433 78.4976 30.3981 78.4976 30.3429C78.4976 30.2876 78.452 30.2424 78.3965 30.2424C78.3408 30.2424 78.2951 30.2876 78.2951 30.3429ZM99.0111 32.9552C99.0113 34.5024 99.043 35.1089 99.0816 34.3028C99.1201 33.4967 99.1197 32.2307 99.081 31.4895C99.0422 30.7484 99.0106 31.4079 99.0111 32.9552ZM99.6392 30.4433C99.708 30.5539 99.8098 30.6443 99.8655 30.6443C99.9212 30.6443 99.9103 30.5539 99.8416 30.4433C99.7728 30.3327 99.671 30.2424 99.6153 30.2424C99.5598 30.2424 99.5705 30.3327 99.6392 30.4433ZM49.3644 30.5438C49.3644 30.5991 49.4099 30.6443 49.4656 30.6443C49.5213 30.6443 49.5667 30.5991 49.5667 30.5438C49.5667 30.4885 49.5213 30.4433 49.4656 30.4433C49.4099 30.4433 49.3644 30.4885 49.3644 30.5438ZM59.4802 30.5438C59.4802 30.5991 59.5256 30.6443 59.5813 30.6443C59.6368 30.6443 59.6825 30.5991 59.6825 30.5438C59.6825 30.4885 59.6368 30.4433 59.5813 30.4433C59.5256 30.4433 59.4802 30.4885 59.4802 30.5438ZM61.3009 30.5438C61.3009 30.5991 61.3464 30.6443 61.4021 30.6443C61.4577 30.6443 61.5032 30.5991 61.5032 30.5438C61.5032 30.4885 61.4577 30.4433 61.4021 30.4433C61.3464 30.4433 61.3009 30.4885 61.3009 30.5438ZM103.18 30.5438C103.18 30.5991 103.225 30.6443 103.281 30.6443C103.337 30.6443 103.382 30.5991 103.382 30.5438C103.382 30.4885 103.337 30.4433 103.281 30.4433C103.225 30.4433 103.18 30.4885 103.18 30.5438ZM46.9366 30.8452C46.9366 30.9925 46.9974 31.0529 47.0715 30.9792C47.1457 30.9055 47.1457 30.785 47.0715 30.7112C46.9974 30.6377 46.9366 30.6979 46.9366 30.8452ZM50.7806 30.8452C50.7806 30.9925 50.8413 31.0529 50.9155 30.9792C50.9897 30.9055 50.9897 30.785 50.9155 30.7112C50.8413 30.6377 50.7806 30.6979 50.7806 30.8452ZM53.4107 30.7447C53.4107 30.8 53.4562 30.8452 53.5118 30.8452C53.5675 30.8452 53.613 30.8 53.613 30.7447C53.613 30.6894 53.5675 30.6443 53.5118 30.6443C53.4562 30.6443 53.4107 30.6894 53.4107 30.7447ZM56.85 30.7447C56.85 30.8 56.8955 30.8452 56.9512 30.8452C57.0069 30.8452 57.0523 30.8 57.0523 30.7447C57.0523 30.6894 57.0069 30.6443 56.9512 30.6443C56.8955 30.6443 56.85 30.6894 56.85 30.7447ZM63.931 30.7447C63.931 30.8 63.9765 30.8452 64.0322 30.8452C64.0878 30.8452 64.1333 30.8 64.1333 30.7447C64.1333 30.6894 64.0878 30.6443 64.0322 30.6443C63.9765 30.6443 63.931 30.6894 63.931 30.7447ZM102.775 30.7447C102.775 30.8 102.821 30.8452 102.876 30.8452C102.932 30.8452 102.977 30.8 102.977 30.7447C102.977 30.6894 102.932 30.6443 102.876 30.6443C102.821 30.6443 102.775 30.6894 102.775 30.7447ZM59.4613 31.1085C59.552 31.198 60.0711 31.2418 60.6151 31.2059C61.6044 31.1402 61.6044 31.1402 60.4506 31.0429C59.8159 30.9895 59.3709 31.019 59.4613 31.1085ZM100.044 31.0461C100.113 31.1567 100.214 31.2471 100.27 31.2471C100.326 31.2471 100.315 31.1567 100.246 31.0461C100.177 30.9357 100.076 30.8452 100.02 30.8452C99.9644 30.8452 99.9751 30.9357 100.044 31.0461ZM49.5667 31.1466C49.5667 31.2019 49.6122 31.2471 49.6679 31.2471C49.7236 31.2471 49.769 31.2019 49.769 31.1466C49.769 31.0913 49.7236 31.0461 49.6679 31.0461C49.6122 31.0461 49.5667 31.0913 49.5667 31.1466ZM53.2084 31.1466C53.2084 31.2019 53.2539 31.2471 53.3095 31.2471C53.3652 31.2471 53.4107 31.2019 53.4107 31.1466C53.4107 31.0913 53.3652 31.0461 53.3095 31.0461C53.2539 31.0461 53.2084 31.0913 53.2084 31.1466ZM56.6477 31.1466C56.6477 31.2019 56.6932 31.2471 56.7489 31.2471C56.8046 31.2471 56.85 31.2019 56.85 31.1466C56.85 31.0913 56.8046 31.0461 56.7489 31.0461C56.6932 31.0461 56.6477 31.0913 56.6477 31.1466ZM47.1389 31.3475C47.1389 31.4028 47.1846 31.448 47.2401 31.448C47.2957 31.448 47.3412 31.4028 47.3412 31.3475C47.3412 31.2923 47.2957 31.2471 47.2401 31.2471C47.1846 31.2471 47.1389 31.2923 47.1389 31.3475ZM50.5783 31.448C50.5783 31.5953 50.639 31.6557 50.7132 31.582C50.7874 31.5084 50.7874 31.3878 50.7132 31.314C50.639 31.2405 50.5783 31.3008 50.5783 31.448ZM64.1333 31.3475C64.1333 31.4028 64.1788 31.448 64.2345 31.448C64.2901 31.448 64.3356 31.4028 64.3356 31.3475C64.3356 31.2923 64.2901 31.2471 64.2345 31.2471C64.1788 31.2471 64.1333 31.2923 64.1333 31.3475ZM75.8834 31.5652C75.8931 31.7993 75.9411 31.847 76.0056 31.6867C76.0642 31.5417 76.0569 31.3683 75.9897 31.3015C75.9225 31.2349 75.8748 31.3534 75.8834 31.5652ZM38.9758 31.5987C38.924 31.6815 39.4877 31.7246 40.2283 31.694C40.9693 31.6634 41.8485 31.6102 42.1823 31.5754C42.5161 31.5407 41.9525 31.4979 40.9298 31.4802C39.9071 31.4625 39.0279 31.5159 38.9758 31.5987ZM42.8904 31.5485C42.8904 31.6038 42.9359 31.6489 42.9915 31.6489C43.0472 31.6489 43.0927 31.6038 43.0927 31.5485C43.0927 31.4932 43.0472 31.448 42.9915 31.448C42.9359 31.448 42.8904 31.4932 42.8904 31.5485ZM78.4976 31.6489C78.4976 31.7963 78.5582 31.8566 78.6325 31.783C78.7065 31.7093 78.7065 31.5888 78.6325 31.5149C78.5582 31.4414 78.4976 31.5018 78.4976 31.6489ZM80.7903 31.582C80.8647 31.6557 80.986 31.6557 81.0602 31.582C81.1344 31.5084 81.0736 31.448 80.9253 31.448C80.7769 31.448 80.7163 31.5084 80.7903 31.582ZM81.4943 31.5852C81.6403 31.6434 81.8149 31.6361 81.882 31.5694C81.9492 31.5028 81.8299 31.4553 81.6165 31.4639C81.381 31.4736 81.3329 31.5212 81.4943 31.5852ZM82.1391 31.5485C82.1391 31.6038 82.1847 31.6489 82.2404 31.6489C82.2959 31.6489 82.3416 31.6038 82.3416 31.5485C82.3416 31.4932 82.2959 31.448 82.2404 31.448C82.1847 31.448 82.1391 31.4932 82.1391 31.5485ZM82.6112 31.582C82.6854 31.6557 82.8068 31.6557 82.8811 31.582C82.9551 31.5084 82.8943 31.448 82.7462 31.448C82.5978 31.448 82.5371 31.5084 82.6112 31.582ZM89.7177 31.6624C89.6442 31.7803 89.616 31.9069 89.6551 31.9436C89.6939 31.9804 89.8433 31.8839 89.9867 31.7292C90.1303 31.5746 90.1584 31.448 90.0491 31.448C89.9402 31.448 89.7908 31.5444 89.7177 31.6624ZM90.4341 31.5485C90.4341 31.6038 90.4795 31.6489 90.5352 31.6489C90.5907 31.6489 90.6364 31.6038 90.6364 31.5485C90.6364 31.4932 90.5907 31.448 90.5352 31.448C90.4795 31.448 90.4341 31.4932 90.4341 31.5485ZM90.8387 31.5485C90.8387 31.6038 90.8842 31.6489 90.9398 31.6489C90.9955 31.6489 91.041 31.6038 91.041 31.5485C91.041 31.4932 90.9955 31.448 90.9398 31.448C90.8842 31.448 90.8387 31.4932 90.8387 31.5485ZM91.6985 31.592C92.0046 31.638 92.5051 31.638 92.8111 31.592C93.1173 31.5459 92.8668 31.5084 92.2548 31.5084C91.6428 31.5084 91.3923 31.5459 91.6985 31.592ZM100.448 31.6489C100.517 31.7595 100.619 31.8499 100.675 31.8499C100.73 31.8499 100.72 31.7595 100.651 31.6489C100.582 31.5385 100.48 31.448 100.425 31.448C100.369 31.448 100.38 31.5385 100.448 31.6489ZM114.914 31.5485C114.914 31.6038 114.959 31.6489 115.015 31.6489C115.071 31.6489 115.116 31.6038 115.116 31.5485C115.116 31.4932 115.071 31.448 115.015 31.448C114.959 31.448 114.914 31.4932 114.914 31.5485ZM115.875 31.5899C116.125 31.6378 116.535 31.6378 116.785 31.5899C117.036 31.5419 116.831 31.5028 116.33 31.5028C115.829 31.5028 115.625 31.5419 115.875 31.5899ZM118.825 31.582C118.899 31.6557 119.021 31.6557 119.095 31.582C119.169 31.5084 119.108 31.448 118.96 31.448C118.812 31.448 118.751 31.5084 118.825 31.582ZM49.769 31.7494C49.769 31.8047 49.8145 31.8499 49.8702 31.8499C49.9259 31.8499 49.9714 31.8047 49.9714 31.7494C49.9714 31.6943 49.9259 31.6489 49.8702 31.6489C49.8145 31.6489 49.769 31.6943 49.769 31.7494ZM53.0061 31.7494C53.0061 31.8047 53.0516 31.8499 53.1072 31.8499C53.1629 31.8499 53.2084 31.8047 53.2084 31.7494C53.2084 31.6943 53.1629 31.6489 53.1072 31.6489C53.0516 31.6489 53.0061 31.6943 53.0061 31.7494ZM56.4454 31.7494C56.4454 31.8047 56.4909 31.8499 56.5466 31.8499C56.6022 31.8499 56.6477 31.8047 56.6477 31.7494C56.6477 31.6943 56.6022 31.6489 56.5466 31.6489C56.4909 31.6489 56.4454 31.6943 56.4454 31.7494ZM64.3356 31.7494C64.3356 31.8047 64.3811 31.8499 64.4368 31.8499C64.4925 31.8499 64.5379 31.8047 64.5379 31.7494C64.5379 31.6943 64.4925 31.6489 64.4368 31.6489C64.3811 31.6489 64.3356 31.6943 64.3356 31.7494ZM47.3412 31.9504C47.3412 32.0056 47.3869 32.0508 47.4424 32.0508C47.498 32.0508 47.5435 32.0056 47.5435 31.9504C47.5435 31.8952 47.498 31.8499 47.4424 31.8499C47.3869 31.8499 47.3412 31.8952 47.3412 31.9504ZM50.376 32.0508C50.376 32.1982 50.4367 32.2585 50.5109 32.185C50.5851 32.1112 50.5851 31.9906 50.5109 31.9168C50.4367 31.8433 50.376 31.9037 50.376 32.0508ZM49.9714 32.24C49.9714 32.3441 50.0615 32.4844 50.1715 32.5518C50.286 32.6221 50.32 32.5415 50.2509 32.3628C50.1845 32.1911 50.0946 32.0508 50.051 32.0508C50.0072 32.0508 49.9714 32.136 49.9714 32.24ZM52.8038 32.1513C52.8038 32.2066 52.8493 32.2518 52.9049 32.2518C52.9606 32.2518 53.0061 32.2066 53.0061 32.1513C53.0061 32.0962 52.9606 32.0508 52.9049 32.0508C52.8493 32.0508 52.8038 32.0962 52.8038 32.1513ZM56.2431 32.2518C56.2431 32.3991 56.3037 32.4594 56.3781 32.3859C56.452 32.3121 56.452 32.1916 56.3781 32.1177C56.3037 32.0442 56.2431 32.1046 56.2431 32.2518ZM64.5379 32.2518C64.5379 32.3991 64.5985 32.4594 64.6729 32.3859C64.7469 32.3121 64.7469 32.1916 64.6729 32.1177C64.5985 32.0442 64.5379 32.1046 64.5379 32.2518ZM76.0857 32.2116C76.0771 32.3551 76.2088 32.7396 76.3785 33.0656C76.5482 33.3916 76.7325 33.6585 76.7882 33.6585C76.8439 33.6585 76.7631 33.4097 76.6085 33.1059C76.454 32.802 76.2767 32.4176 76.2146 32.2518C76.1387 32.0493 76.0964 32.0362 76.0857 32.2116ZM79.0034 32.4529C79.2047 32.6739 79.4149 32.8547 79.4706 32.8547C79.5263 32.8547 79.407 32.6739 79.2057 32.4529C79.0044 32.2317 78.7939 32.0508 78.7383 32.0508C78.6826 32.0508 78.8021 32.2317 79.0034 32.4529ZM100.853 32.2518C100.922 32.3623 101.024 32.4529 101.079 32.4529C101.135 32.4529 101.124 32.3623 101.055 32.2518C100.987 32.1413 100.885 32.0508 100.829 32.0508C100.774 32.0508 100.784 32.1413 100.853 32.2518ZM47.5435 32.3524C47.5435 32.4075 47.5892 32.4529 47.6447 32.4529C47.7004 32.4529 47.7458 32.4075 47.7458 32.3524C47.7458 32.2971 47.7004 32.2518 47.6447 32.2518C47.5892 32.2518 47.5435 32.2971 47.5435 32.3524ZM52.6015 32.6538C52.6015 32.801 52.6621 32.8613 52.7364 32.7878C52.8104 32.714 52.8104 32.5935 52.7364 32.5196C52.6621 32.4461 52.6015 32.5065 52.6015 32.6538ZM69.5957 32.5533C69.5957 32.6085 69.6412 32.6538 69.6969 32.6538C69.7525 32.6538 69.798 32.6085 69.798 32.5533C69.798 32.498 69.7525 32.4529 69.6969 32.4529C69.6412 32.4529 69.5957 32.498 69.5957 32.5533ZM89.6247 32.6538C89.6247 32.801 89.6854 32.8613 89.7598 32.7878C89.8338 32.714 89.8338 32.5935 89.7598 32.5196C89.6854 32.4461 89.6247 32.5065 89.6247 32.6538ZM47.7458 32.8547C47.7458 33.0019 47.8066 33.0622 47.8809 32.9888C47.9549 32.9149 47.9549 32.7944 47.8809 32.7207C47.8066 32.6471 47.7458 32.7074 47.7458 32.8547ZM56.0408 32.7543C56.0408 32.8094 56.0863 32.8547 56.142 32.8547C56.1976 32.8547 56.2431 32.8094 56.2431 32.7543C56.2431 32.699 56.1976 32.6538 56.142 32.6538C56.0863 32.6538 56.0408 32.699 56.0408 32.7543ZM64.7402 32.7543C64.7402 32.8094 64.7857 32.8547 64.8414 32.8547C64.8971 32.8547 64.9425 32.8094 64.9425 32.7543C64.9425 32.699 64.8971 32.6538 64.8414 32.6538C64.7857 32.6538 64.7402 32.699 64.7402 32.7543ZM101.258 32.8547C101.327 32.9652 101.428 33.0557 101.484 33.0557C101.54 33.0557 101.529 32.9652 101.46 32.8547C101.391 32.7442 101.29 32.6538 101.234 32.6538C101.178 32.6538 101.189 32.7442 101.258 32.8547ZM79.7114 32.9552C79.7114 33.0103 79.7569 33.0557 79.8126 33.0557C79.8683 33.0557 79.9137 33.0103 79.9137 32.9552C79.9137 32.8999 79.8683 32.8547 79.8126 32.8547C79.7569 32.8547 79.7114 32.8999 79.7114 32.9552ZM52.3992 33.1561C52.3992 33.2114 52.4447 33.2566 52.5003 33.2566C52.556 33.2566 52.6015 33.2114 52.6015 33.1561C52.6015 33.1009 52.556 33.0557 52.5003 33.0557C52.4447 33.0557 52.3992 33.1009 52.3992 33.1561ZM55.8385 33.2566C55.8385 33.4039 55.8991 33.4641 55.9734 33.3906C56.0474 33.3168 56.0474 33.1963 55.9734 33.1226C55.8991 33.0489 55.8385 33.1093 55.8385 33.2566ZM64.9425 33.2566C64.9425 33.4039 65.0033 33.4641 65.0775 33.3906C65.1515 33.3168 65.1515 33.1963 65.0775 33.1226C65.0033 33.0489 64.9425 33.1093 64.9425 33.2566ZM80.2805 33.1929C80.4265 33.2509 80.6009 33.2436 80.6681 33.177C80.7353 33.1103 80.616 33.0629 80.4027 33.0715C80.167 33.0811 80.1191 33.1288 80.2805 33.1929ZM82.7462 33.1561C82.7462 33.2114 82.7917 33.2566 82.8473 33.2566C82.9028 33.2566 82.9485 33.2114 82.9485 33.1561C82.9485 33.1009 82.9028 33.0557 82.8473 33.0557C82.7917 33.0557 82.7462 33.1009 82.7462 33.1561ZM89.6247 33.1561C89.6247 33.2114 89.6703 33.2566 89.7258 33.2566C89.7815 33.2566 89.827 33.2114 89.827 33.1561C89.827 33.1009 89.7815 33.0557 89.7258 33.0557C89.6703 33.0557 89.6247 33.1009 89.6247 33.1561ZM47.9483 33.3571C47.9483 33.4124 47.9938 33.4576 48.0495 33.4576C48.105 33.4576 48.1506 33.4124 48.1506 33.3571C48.1506 33.3018 48.105 33.2566 48.0495 33.2566C47.9938 33.2566 47.9483 33.3018 47.9483 33.3571ZM74.856 33.3571C74.856 33.4124 74.9014 33.4576 74.9571 33.4576C75.0126 33.4576 75.0583 33.4124 75.0583 33.3571C75.0583 33.3018 75.0126 33.2566 74.9571 33.2566C74.9014 33.2566 74.856 33.3018 74.856 33.3571ZM94.9428 34.1608C94.9443 34.7134 94.9837 34.9155 95.0302 34.6101C95.0765 34.3046 95.0754 33.8525 95.0273 33.6054C94.9793 33.3583 94.9413 33.6083 94.9428 34.1608ZM101.662 33.4576C101.731 33.568 101.833 33.6585 101.889 33.6585C101.944 33.6585 101.934 33.568 101.865 33.4576C101.796 33.347 101.694 33.2566 101.639 33.2566C101.583 33.2566 101.594 33.347 101.662 33.4576ZM58.4685 33.558C58.4685 33.6133 58.5141 33.6585 58.5696 33.6585C58.6253 33.6585 58.6708 33.6133 58.6708 33.558C58.6708 33.5027 58.6253 33.4576 58.5696 33.4576C58.5141 33.4576 58.4685 33.5027 58.4685 33.558ZM62.3124 33.558C62.3124 33.6133 62.3581 33.6585 62.4136 33.6585C62.4692 33.6585 62.5147 33.6133 62.5147 33.558C62.5147 33.5027 62.4692 33.4576 62.4136 33.4576C62.3581 33.4576 62.3124 33.5027 62.3124 33.558ZM48.1506 33.8594C48.1506 34.0068 48.2112 34.0669 48.2855 33.9934C48.3595 33.9198 48.3595 33.7991 48.2855 33.7254C48.2112 33.6519 48.1506 33.7121 48.1506 33.8594ZM52.1969 33.759C52.1969 33.8142 52.2424 33.8594 52.298 33.8594C52.3535 33.8594 52.3992 33.8142 52.3992 33.759C52.3992 33.7037 52.3535 33.6585 52.298 33.6585C52.2424 33.6585 52.1969 33.7037 52.1969 33.759ZM55.6362 33.759C55.6362 33.8142 55.6817 33.8594 55.7374 33.8594C55.7929 33.8594 55.8385 33.8142 55.8385 33.759C55.8385 33.7037 55.7929 33.6585 55.7374 33.6585C55.6817 33.6585 55.6362 33.7037 55.6362 33.759ZM65.1449 33.759C65.1449 33.8142 65.1903 33.8594 65.246 33.8594C65.3017 33.8594 65.3472 33.8142 65.3472 33.759C65.3472 33.7037 65.3017 33.6585 65.246 33.6585C65.1903 33.6585 65.1449 33.7037 65.1449 33.759ZM58.2662 33.9599C58.2662 34.0152 58.3117 34.0604 58.3673 34.0604C58.423 34.0604 58.4685 34.0152 58.4685 33.9599C58.4685 33.9046 58.423 33.8594 58.3673 33.8594C58.3117 33.8594 58.2662 33.9046 58.2662 33.9599ZM62.5147 34.0604C62.5147 34.2077 62.5755 34.2679 62.6496 34.1944C62.7238 34.1207 62.7238 34 62.6496 33.9263C62.5755 33.8528 62.5147 33.913 62.5147 34.0604ZM102.067 34.0604C102.136 34.1709 102.238 34.2613 102.293 34.2613C102.349 34.2613 102.338 34.1709 102.269 34.0604C102.2 33.9498 102.099 33.8594 102.043 33.8594C101.987 33.8594 101.998 33.9498 102.067 34.0604ZM51.9946 34.1608C51.9946 34.2161 52.0401 34.2613 52.0957 34.2613C52.1512 34.2613 52.1969 34.2161 52.1969 34.1608C52.1969 34.1055 52.1512 34.0604 52.0957 34.0604C52.0401 34.0604 51.9946 34.1055 51.9946 34.1608ZM55.4339 34.2613C55.4339 34.4086 55.4945 34.4688 55.5688 34.3953C55.6428 34.3216 55.6428 34.201 55.5688 34.1273C55.4945 34.0538 55.4339 34.114 55.4339 34.2613ZM48.3529 34.3618C48.3529 34.4171 48.3984 34.4622 48.4541 34.4622C48.5096 34.4622 48.5552 34.4171 48.5552 34.3618C48.5552 34.3065 48.5096 34.2613 48.4541 34.2613C48.3984 34.2613 48.3529 34.3065 48.3529 34.3618ZM58.0639 34.4622C58.0639 34.6096 58.1246 34.6697 58.1988 34.5962C58.273 34.5226 58.273 34.4019 58.1988 34.3282C58.1246 34.2547 58.0639 34.3149 58.0639 34.4622ZM65.3472 34.3618C65.3472 34.4171 65.3926 34.4622 65.4483 34.4622C65.504 34.4622 65.5495 34.4171 65.5495 34.3618C65.5495 34.3065 65.504 34.2613 65.4483 34.2613C65.3926 34.2613 65.3472 34.3065 65.3472 34.3618ZM62.717 34.5627C62.717 34.618 62.7627 34.6632 62.8182 34.6632C62.8738 34.6632 62.9193 34.618 62.9193 34.5627C62.9193 34.5074 62.8738 34.4622 62.8182 34.4622C62.7627 34.4622 62.717 34.5074 62.717 34.5627ZM102.472 34.6632C102.54 34.7738 102.642 34.8641 102.698 34.8641C102.753 34.8641 102.743 34.7738 102.674 34.6632C102.605 34.5528 102.503 34.4622 102.448 34.4622C102.392 34.4622 102.403 34.5528 102.472 34.6632ZM48.5552 34.8641C48.5552 35.0114 48.6158 35.0718 48.6902 34.9981C48.7641 34.9245 48.7641 34.8039 48.6902 34.7301C48.6158 34.6566 48.5552 34.7168 48.5552 34.8641ZM51.7923 34.7636C51.7923 34.8189 51.8377 34.8641 51.8934 34.8641C51.9489 34.8641 51.9946 34.8189 51.9946 34.7636C51.9946 34.7083 51.9489 34.6632 51.8934 34.6632C51.8377 34.6632 51.7923 34.7083 51.7923 34.7636ZM55.2314 34.7636C55.2314 34.8189 55.2771 34.8641 55.3326 34.8641C55.3883 34.8641 55.4339 34.8189 55.4339 34.7636C55.4339 34.7083 55.3883 34.6632 55.3326 34.6632C55.2771 34.6632 55.2314 34.7083 55.2314 34.7636ZM65.5495 34.7636C65.5495 34.8189 65.5949 34.8641 65.6506 34.8641C65.7063 34.8641 65.7518 34.8189 65.7518 34.7636C65.7518 34.7083 65.7063 34.6632 65.6506 34.6632C65.5949 34.6632 65.5495 34.7083 65.5495 34.7636ZM77.8905 34.7636C77.8905 34.8189 77.9362 34.8641 77.9917 34.8641C78.0473 34.8641 78.0928 34.8189 78.0928 34.7636C78.0928 34.7083 78.0473 34.6632 77.9917 34.6632C77.9362 34.6632 77.8905 34.7083 77.8905 34.7636ZM57.8616 35.065C57.8616 35.2124 57.9223 35.2727 57.9965 35.1991C58.0706 35.1254 58.0706 35.0049 57.9965 34.931C57.9223 34.8575 57.8616 34.9177 57.8616 35.065ZM51.5898 35.1655C51.5898 35.2208 51.6354 35.266 51.6911 35.266C51.7466 35.266 51.7923 35.2208 51.7923 35.1655C51.7923 35.1102 51.7466 35.065 51.6911 35.065C51.6354 35.065 51.5898 35.1102 51.5898 35.1655ZM55.0291 35.266C55.0291 35.4133 55.0899 35.4737 55.1641 35.4C55.2382 35.3263 55.2382 35.2058 55.1641 35.132C55.0899 35.0585 55.0291 35.1188 55.0291 35.266ZM62.9193 35.1655C62.9193 35.2208 62.965 35.266 63.0205 35.266C63.0762 35.266 63.1218 35.2208 63.1218 35.1655C63.1218 35.1102 63.0762 35.065 63.0205 35.065C62.965 35.065 62.9193 35.1102 62.9193 35.1655ZM65.7677 35.3831C65.7776 35.6173 65.8254 35.665 65.8899 35.5047C65.9485 35.3597 65.9412 35.1862 65.874 35.1195C65.8068 35.0529 65.7591 35.1714 65.7677 35.3831ZM78.6999 35.1655C78.6999 35.2208 78.7454 35.266 78.8011 35.266C78.8566 35.266 78.9022 35.2208 78.9022 35.1655C78.9022 35.1102 78.8566 35.065 78.8011 35.065C78.7454 35.065 78.6999 35.1102 78.6999 35.1655ZM84.9715 35.1655C84.9715 35.2208 85.017 35.266 85.0727 35.266C85.1283 35.266 85.1738 35.2208 85.1738 35.1655C85.1738 35.1102 85.1283 35.065 85.0727 35.065C85.017 35.065 84.9715 35.1102 84.9715 35.1655ZM48.7575 35.4669C48.7575 35.6143 48.8181 35.6746 48.8925 35.6009C48.9665 35.5273 48.9665 35.4067 48.8925 35.3329C48.8181 35.2594 48.7575 35.3198 48.7575 35.4669ZM79.1045 35.3665C79.1045 35.4217 79.15 35.4669 79.2057 35.4669C79.2613 35.4669 79.3068 35.4217 79.3068 35.3665C79.3068 35.3113 79.2613 35.266 79.2057 35.266C79.15 35.266 79.1045 35.3113 79.1045 35.3665ZM84.2297 35.4C84.3038 35.4737 84.4254 35.4737 84.4995 35.4C84.5735 35.3263 84.5129 35.266 84.3646 35.266C84.2163 35.266 84.1557 35.3263 84.2297 35.4ZM94.8849 35.4669C94.8849 35.6143 94.9455 35.6746 95.0199 35.6009C95.0939 35.5273 95.0939 35.4067 95.0199 35.3329C94.9455 35.2594 94.8849 35.3198 94.8849 35.4669ZM103.079 35.4669C103.147 35.5775 103.249 35.6679 103.305 35.6679C103.36 35.6679 103.35 35.5775 103.281 35.4669C103.212 35.3565 103.11 35.266 103.055 35.266C102.999 35.266 103.01 35.3565 103.079 35.4669ZM107.631 35.4669C107.631 35.6143 107.691 35.6746 107.766 35.6009C107.84 35.5273 107.84 35.4067 107.766 35.3329C107.691 35.2594 107.631 35.3198 107.631 35.4669ZM44.1044 35.5674C44.1044 35.6227 44.1498 35.6679 44.2055 35.6679C44.261 35.6679 44.3067 35.6227 44.3067 35.5674C44.3067 35.5123 44.261 35.4669 44.2055 35.4669C44.1498 35.4669 44.1044 35.5123 44.1044 35.5674ZM57.6593 35.5674C57.6593 35.6227 57.7047 35.6679 57.7604 35.6679C57.8161 35.6679 57.8616 35.6227 57.8616 35.5674C57.8616 35.5123 57.8161 35.4669 57.7604 35.4669C57.7047 35.4669 57.6593 35.5123 57.6593 35.5674ZM63.1218 35.5674C63.1218 35.6227 63.1673 35.6679 63.223 35.6679C63.2785 35.6679 63.3241 35.6227 63.3241 35.5674C63.3241 35.5123 63.2785 35.4669 63.223 35.4669C63.1673 35.4669 63.1218 35.5123 63.1218 35.5674ZM74.856 35.5674C74.856 35.6227 74.9014 35.6679 74.9571 35.6679C75.0126 35.6679 75.0583 35.6227 75.0583 35.5674C75.0583 35.5123 75.0126 35.4669 74.9571 35.4669C74.9014 35.4669 74.856 35.5123 74.856 35.5674ZM79.7788 35.6009C79.853 35.6746 79.9745 35.6746 80.0487 35.6009C80.1227 35.5273 80.0621 35.4669 79.9137 35.4669C79.7654 35.4669 79.7048 35.5273 79.7788 35.6009ZM83.3152 35.6043C83.461 35.6623 83.6357 35.655 83.7029 35.5883C83.7701 35.5217 83.6506 35.4742 83.4374 35.4829C83.2017 35.4925 83.1538 35.5401 83.3152 35.6043ZM81.3843 35.8071C81.5812 35.8582 81.8543 35.8548 81.9913 35.7997C82.1282 35.7447 81.9672 35.7031 81.6333 35.7071C81.2995 35.7112 81.1875 35.7562 81.3843 35.8071Z" fill="#81C4D7"/>
<path fill-rule="evenodd" clip-rule="evenodd" d="M10.6552 25.5153C8.13299 28.0169 6.0694 30.162 6.0694 30.2822C6.0694 30.4024 8.12611 32.5366 10.6398 35.0248L15.2103 39.5489L19.8951 34.8955L24.58 30.2424L19.9107 25.6045L15.2413 20.9668L10.6552 25.5153ZM36.4165 30.4433V35.6679H40.2604C44.1044 35.6679 44.1044 35.6679 44.1044 34.4622C44.1044 33.2566 44.1044 33.2566 41.4627 33.2566C38.8209 33.2566 38.8209 33.2566 38.8831 32.4026C38.9453 31.5485 38.9453 31.5485 40.9685 31.52C42.9915 31.4915 42.9915 31.4915 43.0523 30.3646C43.1129 29.2377 43.1129 29.2377 40.9785 29.2377C38.8441 29.2377 38.8441 29.2377 38.8441 28.3333C38.8441 27.4291 38.8441 27.4291 41.4742 27.4291C44.1044 27.4291 44.1044 27.4291 44.1044 26.324C44.1044 25.2188 44.1044 25.2188 40.2604 25.2188H36.4165V30.4433ZM44.9995 25.5704C45.0707 25.764 46.0064 28.1149 47.0788 30.795C49.0292 35.6679 49.0292 35.6679 50.2589 35.665C51.4886 35.6616 51.4886 35.6616 53.5118 30.621C54.6245 27.8487 55.5668 25.4946 55.6057 25.3899C55.6471 25.2783 55.105 25.2242 54.2932 25.2593C52.91 25.3193 52.91 25.3193 52.2654 27.1277C51.9107 28.1224 51.3274 29.7776 50.969 30.8061C50.6107 31.8345 50.2527 32.6031 50.1738 32.5141C50.0947 32.4251 49.4581 30.7471 48.7589 28.7856C47.4877 25.2188 47.4877 25.2188 46.179 25.2188C45.0181 25.2188 44.8847 25.2586 44.9995 25.5704ZM59.2139 25.3604C59.1594 25.4482 58.385 27.3286 57.4929 29.5391C56.6009 31.7494 55.6812 34.0369 55.4493 34.6222C55.0278 35.6864 55.0278 35.6864 56.3668 35.6269C57.7058 35.5674 57.7058 35.5674 58.1014 34.5125C58.4968 33.4576 58.4968 33.4576 60.4805 33.4576C62.464 33.4576 62.464 33.4576 62.8452 34.5125C63.2262 35.5674 63.2262 35.5674 64.4889 35.6274C65.433 35.6719 65.7518 35.62 65.7518 35.4207C65.7518 35.2743 64.8592 32.9416 63.7683 30.2368C61.7848 25.3193 61.7848 25.3193 60.5489 25.2599C59.8692 25.2272 59.2685 25.2724 59.2139 25.3604ZM67.1681 30.4433V35.6679H71.012C74.856 35.6679 74.856 35.6679 74.856 34.4622C74.856 33.2566 74.856 33.2566 72.2258 33.2566H69.5957V29.2377C69.5957 25.2188 69.5957 25.2188 68.3819 25.2188H67.1681V30.4433ZM79.2325 25.5826C78.6772 25.7786 77.9068 26.2749 77.4655 26.7213C77.0351 27.1565 76.5312 27.8303 76.3457 28.2185C76.1385 28.6519 76.0012 29.4702 75.9898 30.337C75.9749 31.4667 76.0774 31.9751 76.5019 32.8762C76.8006 33.5107 77.3306 34.2259 77.7143 34.5133C78.0894 34.794 78.8319 35.1687 79.3644 35.3459C79.8969 35.5231 80.8804 35.6679 81.55 35.6679C82.2195 35.6679 83.3999 35.5251 84.173 35.3504C85.5784 35.033 85.5784 35.033 85.5784 32.1353V29.2377H83.1508C80.723 29.2377 80.723 29.2377 80.723 30.3429C80.723 31.0809 80.807 31.4558 80.9758 31.4708C81.115 31.4834 81.6158 31.4959 82.0885 31.4986C82.9485 31.5033 82.9485 31.5033 82.9485 32.38C82.9485 33.2566 82.9485 33.2566 81.5827 33.2558C80.5877 33.2554 80.0424 33.1491 79.5726 32.8647C79.2179 32.6499 78.8263 32.2858 78.7023 32.0554C78.578 31.8246 78.4737 31.0918 78.4706 30.4265C78.4667 29.6505 78.5801 29.042 78.7865 28.7291C78.9635 28.4608 79.4007 28.0913 79.7578 27.9077C80.13 27.7165 80.9281 27.5646 81.6274 27.552C82.2981 27.5397 83.3251 27.6059 83.9094 27.6992C84.9715 27.8687 84.9715 27.8687 84.9715 26.6675C84.9715 25.5918 84.924 25.4538 84.5163 25.3454C84.2662 25.2788 83.1963 25.2267 82.1391 25.2298C80.8453 25.2336 79.8952 25.3489 79.2325 25.5826ZM87.197 30.4433V35.6679H91.0242C93.38 35.6679 94.8769 35.5912 94.9187 35.4683C94.9557 35.3582 94.9545 34.8157 94.9158 34.2625C94.8459 33.2566 94.8459 33.2566 92.2714 33.2566C89.697 33.2566 89.697 33.2566 89.7119 32.4026C89.7272 31.5485 89.7272 31.5485 91.6486 31.5074C92.7052 31.4846 93.638 31.462 93.7217 31.4571C93.8052 31.4521 93.8734 30.9507 93.8734 30.3429C93.8734 29.2377 93.8734 29.2377 91.7757 29.2377C89.6781 29.2377 89.6781 29.2377 89.7114 28.3836C89.7445 27.5296 89.7445 27.5296 92.3393 27.4291C94.9345 27.3286 94.9345 27.3286 94.9601 26.2735C94.9861 25.2185 94.9861 25.2185 91.0916 25.2185L87.197 25.2188V30.4433ZM96.5034 30.4433V35.6679H97.7174C98.9312 35.6679 98.9312 35.6679 98.9565 32.9552C98.9704 31.4632 98.9931 30.152 99.007 30.0415C99.021 29.9309 99.1233 29.8545 99.2346 29.8719C99.346 29.8891 100.302 31.1778 101.359 32.7354C103.281 35.5674 103.281 35.5674 104.545 35.6274L105.81 35.6871V30.4529V25.2188H104.596C103.382 25.2188 103.382 25.2188 103.366 27.6803C103.358 29.0342 103.319 30.3085 103.281 30.5121C103.242 30.7156 103.172 30.9201 103.125 30.9664C103.079 31.0128 102.143 29.7384 101.047 28.1347C99.0529 25.2188 99.053 25.2188 97.7781 25.2188H96.5034V30.4433ZM107.833 30.4433V35.6679H109.047H110.261V30.4433V25.2188H109.047H107.833V30.4433ZM112.284 30.4433V35.6679H116.229C120.174 35.6679 120.174 35.6679 120.174 34.4622C120.174 33.2566 120.174 33.2566 117.544 33.2566C114.914 33.2566 114.914 33.2566 114.914 32.3662C114.914 31.4758 114.914 31.4758 116.684 31.5547C117.658 31.5984 118.614 31.5859 118.808 31.5274C119.089 31.4431 119.162 31.1945 119.162 30.3294C119.162 29.2377 119.162 29.2377 117.038 29.2377C114.914 29.2377 114.914 29.2377 114.914 28.3333C114.914 27.4291 114.914 27.4291 117.544 27.4291C120.174 27.4291 120.174 27.4291 120.174 26.324C120.174 25.2188 120.174 25.2188 116.229 25.2188H112.284V30.4433ZM59.84 29.6354C59.5631 30.4066 59.3843 31.0847 59.442 31.1424C59.5002 31.2 59.9874 31.2471 60.5255 31.2471C61.1952 31.2471 61.5032 31.1643 61.5032 30.9846C61.5032 30.8405 61.3128 30.1622 61.0799 29.4776C60.8472 28.793 60.5864 28.2329 60.5 28.2329C60.4138 28.2329 60.1168 28.8642 59.84 29.6354ZM11.3554 30.5937C11.508 30.7867 12.4267 31.7363 13.3966 32.7035C14.3667 33.6708 15.1876 34.4622 15.221 34.4622C15.2544 34.4622 16.2346 33.5128 17.399 32.3524L19.5159 30.2424H15.2969C11.3097 30.2424 11.093 30.2616 11.3554 30.5937Z" fill="#F5F7F9"/>
</g>
<path d="M44.4662 40.4571C44.6245 40.4571 44.783 40.2999 44.9414 39.9851C45.0997 39.6704 45.179 39.1536 45.179 38.4343V22.2514C45.179 21.5321 45.0997 21.0264 44.9414 20.7343C44.783 20.4196 44.6245 20.251 44.4662 20.2286H63.5765V20.9029L64.2553 24.1394C63.6897 23.8921 62.6939 23.6337 61.2683 23.364C59.8427 23.0719 58.1229 22.9257 56.1089 22.9257H50.3724C49.6935 22.9257 49.2862 22.9819 49.1504 23.0943C49.0372 23.1841 48.9807 23.4651 48.9807 23.9371V27.7806C48.9807 28.275 49.0372 28.5673 49.1504 28.6571C49.2862 28.747 49.6821 28.792 50.3384 28.792H55.9391C57.2516 28.792 58.3038 28.7246 59.0959 28.5897C59.9106 28.4324 60.4423 28.275 60.6913 28.1177C60.6008 28.4099 60.499 28.7583 60.3858 29.1629C60.2726 29.5674 60.1821 29.972 60.1142 30.3766C60.0463 30.7811 60.0124 31.152 60.0124 31.4891H50.3384C49.6821 31.4891 49.2862 31.5342 49.1504 31.624C49.0372 31.6914 48.9807 31.9836 48.9807 32.5006V36.6812C48.9807 37.1982 49.0372 37.5016 49.1504 37.5914C49.2636 37.6813 49.6596 37.7263 50.3384 37.7263H60.216C61.5285 37.7263 62.5807 37.5801 63.3728 37.288C64.1875 36.9733 64.7192 36.6699 64.9682 36.3777L64.2893 39.412V40.4571H44.4662ZM75.4769 40.4571C75.6353 40.4571 75.7371 40.2999 75.7824 39.9851C75.8503 39.6704 75.7485 39.1423 75.4769 38.4006C75.3863 38.1533 75.1601 37.6476 74.7981 36.8834C74.4359 36.0967 73.9946 35.1527 73.4743 34.0514C72.9537 32.9502 72.3993 31.7926 71.811 30.5789C71.2226 29.3651 70.6456 28.1964 70.0799 27.0726C69.5368 25.9487 69.0502 24.9599 68.6203 24.1057C68.1903 23.2516 67.8848 22.656 67.7038 22.3189C67.3191 21.5996 66.9683 21.0827 66.6516 20.768C66.3573 20.4309 66.1311 20.251 65.9727 20.2286H72.2523C72.0486 20.2286 71.9129 20.3859 71.845 20.7006C71.7771 21.0153 71.9129 21.5547 72.2523 22.3189C72.3881 22.611 72.6029 23.128 72.8972 23.8697C73.2139 24.6114 73.5761 25.4993 73.9834 26.5331C74.4133 27.5446 74.866 28.6347 75.3412 29.8034C75.839 30.9721 76.3255 32.1634 76.8007 33.3771C77.2985 34.5684 77.7624 35.6921 78.1924 36.7486H78.2264C78.6563 35.6697 79.1201 34.5347 79.6181 33.3434C80.1159 32.1297 80.6136 30.9273 81.1116 29.736C81.6094 28.5447 82.0732 27.4434 82.5033 26.432C82.9332 25.3982 83.2952 24.5216 83.5895 23.8023C83.9062 23.0606 84.1212 22.5436 84.2344 22.2514C84.5511 21.5321 84.6757 21.0153 84.6078 20.7006C84.5399 20.3859 84.4153 20.2286 84.2344 20.2286H90.3103C90.1745 20.2286 89.9595 20.3859 89.6654 20.7006C89.3938 20.9927 89.077 21.4984 88.715 22.2177C88.5565 22.5324 88.2623 23.1056 87.8324 23.9371C87.4251 24.7463 86.9385 25.7127 86.3729 26.8366C85.8298 27.9379 85.2527 29.0954 84.6417 30.3091C84.0533 31.5004 83.4876 32.6467 82.9445 33.748C82.424 34.8493 81.9714 35.8159 81.5868 36.6474C81.2246 37.479 80.9984 38.0634 80.9079 38.4006C80.7043 39.1423 80.625 39.6704 80.6703 39.9851C80.7155 40.2999 80.7947 40.4571 80.9079 40.4571H75.4769ZM87.418 40.4571C87.5084 40.4571 87.6668 40.2999 87.8932 39.9851C88.1194 39.6704 88.4136 39.1423 88.7757 38.4006C88.9341 38.0634 89.2056 37.4903 89.5904 36.6812C89.975 35.872 90.4276 34.9167 90.9481 33.8154C91.4685 32.7142 92.0116 31.5679 92.5774 30.3766C93.1431 29.1629 93.6748 28.0053 94.1728 26.904C94.6931 25.8027 95.1458 24.8361 95.5305 24.0046C95.9151 23.173 96.1866 22.5886 96.3452 22.2514C96.6619 21.5321 96.8316 21.0153 96.8543 20.7006C96.8769 20.3859 96.8316 20.2286 96.7185 20.2286H102.659C102.568 20.2286 102.534 20.3859 102.557 20.7006C102.579 21.0153 102.738 21.5321 103.032 22.2514C103.19 22.5886 103.451 23.173 103.813 24.0046C104.175 24.8137 104.605 25.769 105.103 26.8703C105.623 27.9716 106.155 29.1179 106.698 30.3091C107.241 31.4779 107.773 32.613 108.293 33.7143C108.814 34.8156 109.266 35.7822 109.651 36.6137C110.036 37.4453 110.319 38.041 110.5 38.4006C110.862 39.1423 111.19 39.6704 111.484 39.9851C111.801 40.2999 112.038 40.4571 112.197 40.4571H105.917C106.144 40.4121 106.325 40.2324 106.46 39.9177C106.619 39.603 106.596 39.0973 106.392 38.4006C106.347 38.2207 106.268 37.9623 106.155 37.6251C106.042 37.288 105.94 37.0407 105.849 36.8834C105.714 36.5687 105.578 36.344 105.442 36.2091C105.306 36.0743 105.125 35.9844 104.899 35.9394C104.695 35.8944 104.401 35.872 104.016 35.872H95.3269C94.8968 35.872 94.5574 35.8944 94.3085 35.9394C94.0596 35.9619 93.8673 36.0406 93.7315 36.1754C93.6183 36.3103 93.5051 36.535 93.3921 36.8497C93.3014 37.1194 93.211 37.3892 93.1205 37.6589C93.0299 37.9286 92.962 38.1759 92.9169 38.4006C92.7132 39.1423 92.6565 39.6704 92.7471 39.9851C92.8376 40.2999 92.962 40.4571 93.1205 40.4571H87.418ZM96.2094 33.1749H103.032C103.688 33.1749 104.05 33.1187 104.118 33.0063C104.186 32.8939 104.152 32.6467 104.016 32.2646C103.722 31.5453 103.383 30.7699 102.998 29.9383C102.613 29.0841 102.217 28.2413 101.81 27.4097C101.425 26.5556 101.041 25.7464 100.656 24.9823C100.294 24.1956 99.9771 23.5102 99.7056 22.9257H99.6377C99.1625 23.9147 98.6759 24.9486 98.1781 26.0274C97.6802 27.0839 97.205 28.084 96.7525 29.028C96.3224 29.9496 95.9718 30.7024 95.7002 31.2869C95.4287 31.8713 95.2929 32.1634 95.2929 32.1634C95.1344 32.523 95.0779 32.7816 95.1232 32.9389C95.1911 33.0961 95.5531 33.1749 96.2094 33.1749ZM114.376 40.4571C114.534 40.4571 114.692 40.2999 114.851 39.9851C115.009 39.6704 115.088 39.1536 115.088 38.4343V22.2514C115.088 21.5321 115.009 21.0264 114.851 20.7343C114.692 20.4196 114.534 20.251 114.376 20.2286H119.603C119.445 20.2286 119.286 20.3859 119.128 20.7006C118.969 21.0153 118.89 21.5434 118.89 22.2851V36.6812C118.89 37.1756 118.947 37.479 119.06 37.5914C119.196 37.6813 119.603 37.7263 120.282 37.7263H128.869C130.182 37.7263 131.234 37.5801 132.026 37.288C132.841 36.9733 133.373 36.6699 133.622 36.3777L132.943 39.7491V40.4571H114.376ZM144.397 40.7943C141.319 40.7943 138.887 39.9514 137.099 38.2657C135.334 36.5576 134.451 33.939 134.451 30.4103C134.451 28.3424 134.847 26.5219 135.639 24.9486C136.431 23.3527 137.687 22.1166 139.407 21.24C141.127 20.341 143.356 19.8914 146.094 19.8914C148.244 19.8914 150.02 20.0039 151.423 20.2286C152.849 20.4533 153.822 20.6782 154.342 20.9029V21.5771L155.021 24.6114C154.41 24.1619 153.335 23.7124 151.797 23.2629C150.258 22.8133 148.38 22.5886 146.162 22.5886C144.352 22.5886 142.858 22.9257 141.681 23.6C140.505 24.2519 139.633 25.1622 139.068 26.3309C138.525 27.4996 138.253 28.8594 138.253 30.4103C138.253 32.0286 138.502 33.4109 139 34.5571C139.52 35.7034 140.335 36.58 141.444 37.1869C142.553 37.7713 144.001 38.0634 145.789 38.0634C147.327 38.0634 148.549 37.8949 149.454 37.5577C150.36 37.2206 151.004 36.771 151.389 36.2091C151.774 35.6247 151.966 34.9954 151.966 34.3212V33.4446C151.966 32.9276 151.921 32.6354 151.83 32.568C151.763 32.4782 151.468 32.4331 150.948 32.4331H149.862C148.594 32.4331 147.576 32.5119 146.807 32.6691C146.06 32.8264 145.585 32.9839 145.381 33.1411L145.721 30.4777V29.8034H156.413C156.255 29.8259 156.096 29.9944 155.938 30.3091C155.802 30.6013 155.734 31.107 155.734 31.8263V38.4343C155.734 39.1536 155.802 39.6704 155.938 39.9851C156.096 40.2999 156.255 40.4571 156.413 40.4571H151.966V39.6817L152.034 38.7377L151.966 38.6703C151.604 39.0524 151.129 39.412 150.541 39.7491C149.952 40.0639 149.16 40.311 148.165 40.4909C147.192 40.6932 145.936 40.7943 144.397 40.7943ZM160.153 40.4571C160.311 40.4571 160.47 40.2999 160.628 39.9851C160.787 39.6704 160.866 39.1536 160.866 38.4343V22.2514C160.866 21.5321 160.787 21.0264 160.628 20.7343C160.47 20.4196 160.311 20.251 160.153 20.2286H179.263V20.9029L179.942 24.1394C179.377 23.8921 178.381 23.6337 176.955 23.364C175.529 23.0719 173.81 22.9257 171.796 22.9257H166.059C165.38 22.9257 164.973 22.9819 164.837 23.0943C164.724 23.1841 164.668 23.4651 164.668 23.9371V27.7806C164.668 28.275 164.724 28.5673 164.837 28.6571C164.973 28.747 165.369 28.792 166.025 28.792H171.626C172.938 28.792 173.99 28.7246 174.783 28.5897C175.597 28.4324 176.129 28.275 176.378 28.1177C176.288 28.4099 176.186 28.7583 176.073 29.1629C175.959 29.5674 175.869 29.972 175.801 30.3766C175.733 30.7811 175.699 31.152 175.699 31.4891H166.025C165.369 31.4891 164.973 31.5342 164.837 31.624C164.724 31.6914 164.668 31.9836 164.668 32.5006V36.6812C164.668 37.1982 164.724 37.5016 164.837 37.5914C164.95 37.6813 165.347 37.7263 166.025 37.7263H175.903C177.215 37.7263 178.267 37.5801 179.06 37.288C179.874 36.9733 180.405 36.6699 180.655 36.3777L179.976 39.412V40.4571H160.153ZM183.357 40.4571C183.515 40.4571 183.674 40.2999 183.832 39.9851C183.99 39.6704 184.07 39.1536 184.07 38.4343V22.2514C184.07 21.5321 183.99 21.0264 183.832 20.7343C183.674 20.4196 183.515 20.251 183.357 20.2286H188.618C188.596 20.296 188.674 20.4983 188.856 20.8354C189.059 21.1726 189.421 21.667 189.942 22.3189C190.1 22.5211 190.429 22.9257 190.926 23.5326C191.447 24.1394 192.092 24.8924 192.861 25.7914C193.63 26.668 194.456 27.6344 195.339 28.6909C196.244 29.7247 197.15 30.7811 198.054 31.86C198.983 32.9164 199.865 33.9279 200.702 34.8943H200.77V22.2514C200.77 21.5321 200.69 21.0264 200.532 20.7343C200.374 20.4196 200.215 20.251 200.057 20.2286H205.284C205.127 20.2286 204.967 20.3859 204.809 20.7006C204.651 21.0153 204.572 21.5434 204.572 22.2851V38.4343C204.572 39.1536 204.651 39.6704 204.809 39.9851C204.967 40.2999 205.127 40.4571 205.284 40.4571H200.838C200.86 40.3897 200.77 40.1874 200.566 39.8503C200.363 39.4907 200.001 38.9961 199.48 38.3669C199.141 37.9399 198.643 37.3441 197.987 36.58C197.354 35.7933 196.629 34.9056 195.814 33.9166C195 32.9052 194.129 31.8487 193.201 30.7474C192.296 29.6462 191.39 28.5447 190.485 27.4434C189.602 26.3422 188.766 25.3194 187.973 24.3754H187.871V38.4343C187.871 39.1536 187.951 39.6704 188.109 39.9851C188.267 40.2999 188.426 40.4571 188.584 40.4571H183.357ZM209.344 40.4571C209.504 40.4571 209.661 40.2999 209.819 39.9851C209.979 39.6704 210.057 39.1536 210.057 38.4343V22.2514C210.057 21.5321 209.979 21.0264 209.819 20.7343C209.661 20.4196 209.504 20.251 209.344 20.2286H214.571C214.414 20.2286 214.256 20.3859 214.096 20.7006C213.938 21.0153 213.859 21.5434 213.859 22.2851V38.4343C213.859 39.1536 213.938 39.6704 214.096 39.9851C214.256 40.2999 214.414 40.4571 214.571 40.4571H209.344ZM218.66 40.4571C218.818 40.4571 218.976 40.2999 219.135 39.9851C219.293 39.6704 219.373 39.1536 219.373 38.4343V22.2514C219.373 21.5321 219.293 21.0264 219.135 20.7343C218.976 20.4196 218.818 20.251 218.66 20.2286H237.77V20.9029L238.449 24.1394C237.882 23.8921 236.888 23.6337 235.462 23.364C234.036 23.0719 232.316 22.9257 230.303 22.9257H224.566C223.887 22.9257 223.48 22.9819 223.344 23.0943C223.23 23.1841 223.174 23.4651 223.174 23.9371V27.7806C223.174 28.275 223.23 28.5673 223.344 28.6571C223.48 28.747 223.875 28.792 224.532 28.792H230.133C231.445 28.792 232.497 28.7246 233.29 28.5897C234.104 28.4324 234.636 28.275 234.885 28.1177C234.793 28.4099 234.692 28.7583 234.58 29.1629C234.466 29.5674 234.376 29.972 234.308 30.3766C234.24 30.7811 234.206 31.152 234.206 31.4891H224.532C223.875 31.4891 223.48 31.5342 223.344 31.624C223.23 31.6914 223.174 31.9836 223.174 32.5006V36.6812C223.174 37.1982 223.23 37.5016 223.344 37.5914C223.456 37.6813 223.853 37.7263 224.532 37.7263H234.41C235.722 37.7263 236.774 37.5801 237.567 37.288C238.381 36.9733 238.912 36.6699 239.162 36.3777L238.483 39.412V40.4571H218.66Z" fill="white"/>
</svg>
