<svg width="28" height="27" viewBox="0 0 28 27" fill="none" xmlns="http://www.w3.org/2000/svg">
<g clip-path="url(#clip0_87_213)">
<path d="M22.7839 7.98189C23.0514 7.14995 23.1372 6.27359 23.0359 5.40809C22.9346 4.54258 22.6484 3.70669 22.1955 2.95314C22.1187 2.82484 22.0082 2.71831 21.8751 2.64426C21.7421 2.5702 21.5911 2.53123 21.4375 2.53126C20.4183 2.52921 19.4128 2.75703 18.5012 3.19654C17.5896 3.63605 16.7973 4.27506 16.1875 5.06251H13.5625C12.9527 4.27506 12.1604 3.63605 11.2488 3.19654C10.3372 2.75703 9.33167 2.52921 8.3125 2.53126C8.15887 2.53123 8.00794 2.5702 7.87489 2.64426C7.74183 2.71831 7.63135 2.82484 7.55453 2.95314C7.10155 3.70669 6.8154 4.54258 6.71413 5.40809C6.61285 6.27359 6.69864 7.14995 6.96609 7.98189C6.42548 8.89178 6.13589 9.92017 6.125 10.9688V11.8125C6.12684 13.2401 6.6643 14.6189 7.63812 15.6942C8.61194 16.7696 9.95636 17.4688 11.4231 17.6629C10.8244 18.4016 10.4994 19.3124 10.5 20.25V21.0938H7.875C7.17881 21.0938 6.51113 20.8271 6.01884 20.3524C5.52656 19.8777 5.25 19.2338 5.25 18.5625C5.25 18.0085 5.13684 17.4599 4.91697 16.9481C4.69711 16.4362 4.37485 15.9712 3.96859 15.5794C3.56234 15.1877 3.08004 14.8769 2.54924 14.6649C2.01844 14.4529 1.44953 14.3438 0.875 14.3438C0.642936 14.3438 0.420376 14.4327 0.256282 14.5909C0.0921872 14.7491 0 14.9637 0 15.1875C0 15.4113 0.0921872 15.6259 0.256282 15.7841C0.420376 15.9424 0.642936 16.0313 0.875 16.0313C1.57119 16.0313 2.23887 16.2979 2.73116 16.7726C3.22344 17.2474 3.5 17.8912 3.5 18.5625C3.5 19.6814 3.96094 20.7545 4.78141 21.5456C5.60188 22.3368 6.71468 22.7813 7.875 22.7813H10.5V24.4688C10.5 24.6925 10.5922 24.9072 10.7563 25.0654C10.9204 25.2236 11.1429 25.3125 11.375 25.3125C11.6071 25.3125 11.8296 25.2236 11.9937 25.0654C12.1578 24.9072 12.25 24.6925 12.25 24.4688V20.25C12.25 19.5787 12.5266 18.9349 13.0188 18.4601C13.5111 17.9854 14.1788 17.7188 14.875 17.7188C15.5712 17.7188 16.2389 17.9854 16.7312 18.4601C17.2234 18.9349 17.5 19.5787 17.5 20.25V24.4688C17.5 24.6925 17.5922 24.9072 17.7563 25.0654C17.9204 25.2236 18.1429 25.3125 18.375 25.3125C18.6071 25.3125 18.8296 25.2236 18.9937 25.0654C19.1578 24.9072 19.25 24.6925 19.25 24.4688V20.25C19.2506 19.3124 18.9256 18.4016 18.3269 17.6629C19.7936 17.4688 21.1381 16.7696 22.1119 15.6942C23.0857 14.6189 23.6232 13.2401 23.625 11.8125V10.9688C23.6141 9.92017 23.3245 8.89178 22.7839 7.98189ZM21.875 11.8125C21.875 12.9314 21.4141 14.0045 20.5936 14.7956C19.7731 15.5868 18.6603 16.0313 17.5 16.0313H12.25C11.0897 16.0313 9.97688 15.5868 9.15641 14.7956C8.33594 14.0045 7.875 12.9314 7.875 11.8125V10.9688C7.88573 10.125 8.14769 9.30206 8.62969 8.59783C8.71954 8.48362 8.77774 8.34923 8.79879 8.20733C8.81984 8.06542 8.80305 7.92068 8.75 7.78677C8.52209 7.21998 8.4124 6.61539 8.42723 6.00765C8.44206 5.39991 8.5811 4.80096 8.83641 4.24513C9.5525 4.31941 10.2421 4.54816 10.854 4.91441C11.466 5.28065 11.9846 5.77501 12.3714 6.36083C12.4502 6.4797 12.5587 6.57761 12.6869 6.6456C12.8151 6.71359 12.959 6.74949 13.1053 6.75001H16.6436C16.7905 6.75002 16.935 6.71437 17.0638 6.64636C17.1926 6.57834 17.3017 6.48015 17.3808 6.36083C17.7676 5.77496 18.2862 5.28056 18.8981 4.91431C19.5101 4.54805 20.1997 4.31934 20.9158 4.24513C21.1707 4.8011 21.3094 5.40012 21.3239 6.00786C21.3383 6.6156 21.2283 7.22012 21 7.78677C20.9471 7.9194 20.9294 8.06267 20.9485 8.20357C20.9676 8.34447 21.0229 8.47854 21.1094 8.59361C21.5962 9.29785 21.862 10.1225 21.875 10.9688V11.8125Z" fill="#F5F5F5"/>
</g>
<defs>
<clipPath id="clip0_87_213">
<rect width="28" height="27" fill="white"/>
</clipPath>
</defs>
</svg>
