<svg width="33" height="33" viewBox="0 0 33 33" fill="none" xmlns="http://www.w3.org/2000/svg">
<g clip-path="url(#clip0_199_46)">
<path d="M15.5488 27.724C15.4947 27.9403 15.3699 28.1324 15.1941 28.2696C15.0184 28.4069 14.8018 28.4814 14.5788 28.4815C14.4946 28.4819 14.4106 28.4718 14.3288 28.4515L10.3288 27.4515C10.2175 27.4235 10.1117 27.3766 10.0163 27.3127L7.01631 25.3127C6.79569 25.1655 6.64257 24.9367 6.59064 24.6766C6.53872 24.4165 6.59224 24.1465 6.73944 23.9258C6.88663 23.7052 7.11544 23.5521 7.37553 23.5002C7.63562 23.4482 7.90569 23.5018 8.12631 23.649L10.9813 25.5527L14.8138 26.5115C14.9419 26.5425 15.0625 26.5985 15.1688 26.6764C15.2752 26.7542 15.3651 26.8523 15.4334 26.9649C15.5017 27.0776 15.547 27.2027 15.5668 27.3329C15.5866 27.4632 15.5805 27.5961 15.5488 27.724ZM32.1351 15.6665C32.053 15.9157 31.9224 16.1462 31.7508 16.3446C31.5791 16.5431 31.3699 16.7056 31.1351 16.8227L28.1751 18.3027L21.2901 25.189C21.1679 25.311 21.0161 25.3994 20.8496 25.4454C20.6832 25.4914 20.5076 25.4935 20.3401 25.4515L12.3401 23.4515C12.2184 23.4209 12.1035 23.3679 12.0013 23.2952L5.06131 18.3402L2.02631 16.8227C1.55198 16.5856 1.19124 16.1698 1.02341 15.6668C0.85557 15.1637 0.894385 14.6146 1.13131 14.1402L4.23756 7.92896C4.47468 7.45463 4.89047 7.09389 5.39351 6.92605C5.89654 6.75822 6.44564 6.79703 6.92006 7.03396L9.67756 8.40896L16.3026 6.51646C16.4823 6.46505 16.6728 6.46505 16.8526 6.51646L23.4776 8.40896L26.2351 7.03396C26.7095 6.79703 27.2586 6.75822 27.7616 6.92605C28.2647 7.09389 28.6804 7.45463 28.9176 7.92896L32.0238 14.1402C32.1423 14.3746 32.2131 14.6302 32.2322 14.8922C32.2513 15.1542 32.2183 15.4173 32.1351 15.6665ZM26.3626 17.284L22.9613 10.4815H18.9838L13.5788 15.7315C15.1613 16.7427 17.6426 17.0215 19.8688 14.7777C20.0427 14.6025 20.2752 14.4977 20.5217 14.4836C20.7682 14.4696 21.0111 14.5471 21.2038 14.7015L25.5051 18.1477L26.3626 17.284ZM2.92006 15.034L5.13131 16.1402L8.23756 9.92896L6.02631 8.82271L2.92006 15.034ZM24.0788 19.564L20.6151 16.7902C18.1726 18.7902 15.0713 19.054 12.5013 17.4152C12.2485 17.2544 12.0351 17.0388 11.8768 16.7845C11.7184 16.5301 11.6193 16.2434 11.5867 15.9456C11.554 15.6477 11.5887 15.3464 11.6882 15.0637C11.7876 14.7811 11.9493 14.5245 12.1613 14.3127C12.1643 14.3091 12.1677 14.3057 12.1713 14.3027L17.7788 8.86396L16.5788 8.52146L10.2763 10.3227L6.85506 17.164L13.0051 21.5577L20.2726 23.374L24.0788 19.564ZM30.2338 15.034L27.1313 8.82271L24.9201 9.92896L28.0263 16.1402L30.2338 15.034Z" fill="#D9DCD6"/>
</g>
<defs>
<clipPath id="clip0_199_46">
<rect width="32" height="32" fill="white" transform="translate(0.578827 0.481445)"/>
</clipPath>
</defs>
</svg>
