<svg width="56" height="56" viewBox="0 0 56 56" fill="none" xmlns="http://www.w3.org/2000/svg">
<path d="M26.1975 47.6744C26.1029 48.053 25.8844 48.3891 25.5768 48.6293C25.2693 48.8694 24.8902 48.9999 24.5 49C24.3526 49.0007 24.2056 48.9831 24.0625 48.9475L17.0625 47.1975C16.8676 47.1486 16.6826 47.0664 16.5156 46.9547L11.2656 43.4547C10.8795 43.1971 10.6116 42.7967 10.5207 42.3415C10.4298 41.8864 10.5235 41.4137 10.7811 41.0277C11.0387 40.6416 11.4391 40.3736 11.8943 40.2827C12.3494 40.1919 12.822 40.2855 13.2081 40.5431L18.2044 43.8747L24.9112 45.5525C25.1353 45.6068 25.3465 45.7049 25.5325 45.8411C25.7186 45.9773 25.8759 46.1489 25.9954 46.3461C26.115 46.5432 26.1944 46.7621 26.229 46.9901C26.2637 47.218 26.253 47.4506 26.1975 47.6744ZM55.2234 26.5737C55.0798 27.0099 54.8513 27.4133 54.5509 27.7606C54.2505 28.1079 53.8843 28.3922 53.4734 28.5972L48.2934 31.1872L36.2447 43.2381C36.0308 43.4518 35.7653 43.6063 35.474 43.6869C35.1826 43.7674 34.8754 43.771 34.5822 43.6975L20.5822 40.1975C20.3693 40.144 20.1682 40.0513 19.9894 39.9241L7.84437 31.2528L2.53312 28.5972C1.70305 28.1822 1.07175 27.4546 0.778035 26.5743C0.484324 25.694 0.552249 24.7331 0.966875 23.9028L6.40281 13.0331C6.81777 12.203 7.5454 11.5717 8.42571 11.278C9.30602 10.9843 10.2669 11.0522 11.0972 11.4669L15.9228 13.8731L27.5166 10.5612C27.8311 10.4713 28.1645 10.4713 28.4791 10.5612L40.0728 13.8731L44.8984 11.4669C45.7287 11.0522 46.6896 10.9843 47.5699 11.278C48.4502 11.5717 49.1779 12.203 49.5928 13.0331L55.0287 23.9028C55.2361 24.3131 55.36 24.7603 55.3935 25.2188C55.4269 25.6772 55.3691 26.1378 55.2234 26.5737ZM45.1216 29.4044L39.1694 17.5H32.2087L22.75 26.6875C25.5194 28.4572 29.8616 28.945 33.7575 25.0184C34.0618 24.7117 34.4687 24.5284 34.9 24.5038C35.3314 24.4792 35.7565 24.6149 36.0937 24.885L43.6209 30.9159L45.1216 29.4044ZM4.09719 25.4669L7.96687 27.4028L13.4028 16.5331L9.53312 14.5972L4.09719 25.4669ZM41.125 33.3944L35.0634 28.5403C30.7891 32.0403 25.3619 32.5019 20.8644 29.6341C20.422 29.3526 20.0484 28.9754 19.7714 28.5303C19.4943 28.0851 19.3208 27.5834 19.2637 27.0622C19.2066 26.541 19.2673 26.0136 19.4414 25.519C19.6155 25.0244 19.8984 24.5752 20.2694 24.2047C20.2746 24.1983 20.2805 24.1925 20.2869 24.1872L30.1 14.6694L28 14.07L16.9706 17.2222L10.9834 29.1944L21.7459 36.8834L34.4641 40.0619L41.125 33.3944ZM51.8962 25.4669L46.4669 14.5972L42.5972 16.5331L48.0331 27.4028L51.8962 25.4669Z" fill="url(#paint0_linear_11_68)"/>
<defs>
<linearGradient id="paint0_linear_11_68" x1="28.0004" y1="10.4938" x2="28.0004" y2="49" gradientUnits="userSpaceOnUse">
<stop stop-color="#1A88C7"/>
<stop offset="1" stop-color="#81C4D7" stop-opacity="0.48"/>
</linearGradient>
</defs>
</svg>
