<svg width="28" height="27" viewBox="0 0 28 27" fill="none" xmlns="http://www.w3.org/2000/svg">
<path d="M14 8.4375C12.9616 8.4375 11.9466 8.73441 11.0833 9.29069C10.2199 9.84696 9.54699 10.6376 9.14963 11.5627C8.75227 12.4877 8.64831 13.5056 8.85088 14.4876C9.05345 15.4697 9.55346 16.3717 10.2877 17.0797C11.0219 17.7877 11.9574 18.2699 12.9758 18.4652C13.9942 18.6606 15.0498 18.5603 16.0091 18.1771C16.9684 17.794 17.7883 17.1451 18.3652 16.3126C18.9421 15.4801 19.25 14.5013 19.25 13.5C19.2486 12.1578 18.695 10.8709 17.7107 9.92181C16.7265 8.97271 15.3919 8.4389 14 8.4375ZM14 16.875C13.3078 16.875 12.6311 16.6771 12.0555 16.3062C11.4799 15.9354 11.0313 15.4083 10.7664 14.7916C10.5015 14.1749 10.4322 13.4963 10.5673 12.8416C10.7023 12.1869 11.0356 11.5855 11.5251 11.1135C12.0146 10.6415 12.6383 10.3201 13.3172 10.1898C13.9961 10.0596 14.6999 10.1265 15.3394 10.3819C15.9789 10.6374 16.5256 11.0699 16.9101 11.625C17.2947 12.18 17.5 12.8325 17.5 13.5C17.5 14.3951 17.1313 15.2535 16.4749 15.8865C15.8185 16.5194 14.9283 16.875 14 16.875ZM19.25 2.53125H8.75C7.12608 2.53293 5.56917 3.15573 4.42089 4.263C3.27261 5.37027 2.62674 6.87158 2.625 8.4375V18.5625C2.62674 20.1284 3.27261 21.6297 4.42089 22.737C5.56917 23.8443 7.12608 24.4671 8.75 24.4688H19.25C20.8739 24.4671 22.4308 23.8443 23.5791 22.737C24.7274 21.6297 25.3733 20.1284 25.375 18.5625V8.4375C25.3733 6.87158 24.7274 5.37027 23.5791 4.263C22.4308 3.15573 20.8739 2.53293 19.25 2.53125ZM23.625 18.5625C23.625 19.6814 23.1641 20.7544 22.3436 21.5456C21.5231 22.3368 20.4103 22.7812 19.25 22.7812H8.75C7.58968 22.7812 6.47688 22.3368 5.65641 21.5456C4.83594 20.7544 4.375 19.6814 4.375 18.5625V8.4375C4.375 7.31862 4.83594 6.24556 5.65641 5.45439C6.47688 4.66322 7.58968 4.21875 8.75 4.21875H19.25C20.4103 4.21875 21.5231 4.66322 22.3436 5.45439C23.1641 6.24556 23.625 7.31862 23.625 8.4375V18.5625ZM21 8.01562C21 8.26594 20.923 8.51064 20.7788 8.71877C20.6346 8.9269 20.4296 9.08912 20.1898 9.18491C19.9499 9.2807 19.686 9.30577 19.4314 9.25693C19.1768 9.2081 18.943 9.08756 18.7594 8.91056C18.5759 8.73356 18.4509 8.50804 18.4002 8.26254C18.3496 8.01703 18.3756 7.76255 18.4749 7.53129C18.5742 7.30003 18.7425 7.10236 18.9583 6.9633C19.1742 6.82423 19.4279 6.75 19.6875 6.75C20.0356 6.75 20.3694 6.88334 20.6156 7.12069C20.8617 7.35804 21 7.67996 21 8.01562Z" fill="#F5F5F5"/>
</svg>
