<svg width="33" height="33" viewBox="0 0 33 33" fill="none" xmlns="http://www.w3.org/2000/svg">
<path d="M26.4223 4.61035H6.6723C6.10872 4.61035 5.56821 4.83423 5.1697 5.23275C4.77119 5.63126 4.5473 6.17177 4.5473 6.73535V12.8866C4.54783 13.295 4.66601 13.6945 4.88769 14.0375C5.10937 14.3804 5.42517 14.6522 5.7973 14.8204L13.6223 18.3766C12.4637 19.025 11.5528 20.0393 11.0324 21.2608C10.512 22.4822 10.4114 23.8418 10.7465 25.1265C11.0815 26.4113 11.8332 27.5486 12.8838 28.3604C13.9344 29.1722 15.2246 29.6125 16.5523 29.6125C17.88 29.6125 19.1702 29.1722 20.2208 28.3604C21.2714 27.5486 22.0231 26.4113 22.3581 25.1265C22.6932 23.8418 22.5926 22.4822 22.0722 21.2608C21.5518 20.0393 20.6409 19.025 19.4823 18.3766L27.2973 14.8204C27.6694 14.6522 27.9852 14.3804 28.2069 14.0375C28.4286 13.6945 28.5468 13.295 28.5473 12.8866V6.73535C28.5473 6.17177 28.3234 5.63126 27.9249 5.23275C27.5264 4.83423 26.9859 4.61035 26.4223 4.61035ZM20.5473 6.61035V15.6941L16.5473 17.5116L12.5473 15.6941V6.61035H20.5473ZM6.5473 12.8866V6.73535C6.5473 6.7022 6.56047 6.67041 6.58391 6.64696C6.60736 6.62352 6.63915 6.61035 6.6723 6.61035H10.5473V14.7841L6.62105 13.0004C6.59912 12.9905 6.5805 12.9745 6.56742 12.9543C6.55434 12.9342 6.54735 12.9106 6.5473 12.8866ZM16.5473 27.6104C15.7562 27.6104 14.9828 27.3758 14.325 26.9362C13.6672 26.4967 13.1545 25.872 12.8518 25.1411C12.549 24.4102 12.4698 23.6059 12.6242 22.83C12.7785 22.0541 13.1595 21.3413 13.7189 20.7819C14.2783 20.2225 14.991 19.8416 15.7669 19.6872C16.5429 19.5329 17.3471 19.6121 18.078 19.9148C18.8089 20.2176 19.4337 20.7303 19.8732 21.3881C20.3127 22.0459 20.5473 22.8192 20.5473 23.6104C20.5473 24.6712 20.1259 25.6886 19.3757 26.4388C18.6256 27.1889 17.6082 27.6104 16.5473 27.6104ZM26.5473 12.8866C26.5473 12.9106 26.5403 12.9342 26.5272 12.9543C26.5141 12.9745 26.4955 12.9905 26.4736 13.0004L22.5473 14.7841V6.61035H26.4223C26.4555 6.61035 26.4872 6.62352 26.5107 6.64696C26.5341 6.67041 26.5473 6.7022 26.5473 6.73535V12.8866Z" fill="#D9DCD6"/>
</svg>
