<svg width="56" height="56" viewBox="0 0 56 56" fill="none" xmlns="http://www.w3.org/2000/svg">
<path d="M45.2812 7H10.7188C9.73248 7 8.7866 7.3918 8.0892 8.0892C7.3918 8.7866 7 9.73248 7 10.7188V21.4834C7.00092 22.1981 7.20773 22.8973 7.59568 23.4974C7.98362 24.0976 8.53627 24.5732 9.1875 24.8675L22.8812 31.0909C20.8537 32.2256 19.2597 34.0007 18.3489 36.1382C17.4382 38.2758 17.2622 40.655 17.8485 42.9033C18.4348 45.1516 19.7503 47.1419 21.5888 48.5626C23.4274 49.9832 25.6853 50.7538 28.0087 50.7538C30.3322 50.7538 32.5901 49.9832 34.4287 48.5626C36.2672 47.1419 37.5827 45.1516 38.169 42.9033C38.7553 40.655 38.5793 38.2758 37.6686 36.1382C36.7578 34.0007 35.1638 32.2256 33.1362 31.0909L46.8125 24.8675C47.4637 24.5732 48.0164 24.0976 48.4043 23.4974C48.7923 22.8973 48.9991 22.1981 49 21.4834V10.7188C49 9.73248 48.6082 8.7866 47.9108 8.0892C47.2134 7.3918 46.2675 7 45.2812 7ZM35 10.5V26.3966L28 29.5772L21 26.3966V10.5H35ZM10.5 21.4834V10.7188C10.5 10.6607 10.523 10.6051 10.5641 10.5641C10.6051 10.523 10.6607 10.5 10.7188 10.5H17.5V24.8041L10.6291 21.6825C10.5907 21.6652 10.5581 21.6373 10.5352 21.602C10.5123 21.5667 10.5001 21.5255 10.5 21.4834ZM28 47.25C26.6155 47.25 25.2622 46.8395 24.111 46.0703C22.9599 45.3011 22.0627 44.2079 21.5328 42.9288C21.003 41.6497 20.8644 40.2422 21.1345 38.8844C21.4046 37.5265 22.0713 36.2792 23.0503 35.3003C24.0292 34.3213 25.2765 33.6546 26.6344 33.3845C27.9922 33.1144 29.3997 33.253 30.6788 33.7828C31.9579 34.3127 33.0511 35.2099 33.8203 36.361C34.5895 37.5122 35 38.8655 35 40.25C35 42.1065 34.2625 43.887 32.9497 45.1997C31.637 46.5125 29.8565 47.25 28 47.25ZM45.5 21.4834C45.4999 21.5255 45.4877 21.5667 45.4648 21.602C45.4419 21.6373 45.4093 21.6652 45.3709 21.6825L38.5 24.8041V10.5H45.2812C45.3393 10.5 45.3949 10.523 45.4359 10.5641C45.477 10.6051 45.5 10.6607 45.5 10.7188V21.4834Z" fill="url(#paint0_linear_11_63)"/>
<defs>
<linearGradient id="paint0_linear_11_63" x1="28" y1="7" x2="28" y2="50.7538" gradientUnits="userSpaceOnUse">
<stop stop-color="#1A88C7"/>
<stop offset="1" stop-color="#81C4D7" stop-opacity="0.48"/>
</linearGradient>
</defs>
</svg>
