<svg width="28" height="27" viewBox="0 0 28 27" fill="none" xmlns="http://www.w3.org/2000/svg">
<path d="M27.0583 7.27095C26.9921 7.11677 26.88 6.98497 26.7361 6.89223C26.5922 6.79949 26.4231 6.74997 26.25 6.74994H22.9217C22.4564 5.98653 21.7941 5.35222 20.9993 4.90867C20.2045 4.46512 19.3042 4.22742 18.3859 4.21869C17.7018 4.21003 17.0228 4.33341 16.3889 4.58155C15.7549 4.8297 15.1788 5.1976 14.6945 5.66361C14.1961 6.13529 13.8005 6.69831 13.5309 7.31956C13.2614 7.94081 13.1234 8.60776 13.125 9.28119V9.92349C8.72156 8.80341 5.11984 5.34931 5.08156 5.3124C4.96417 5.1982 4.81538 5.11872 4.65272 5.08333C4.49006 5.04793 4.3203 5.0581 4.16342 5.11262C4.00655 5.16715 3.8691 5.26376 3.76726 5.39108C3.66542 5.51841 3.60343 5.67115 3.58859 5.8313C3.11719 10.8717 4.63531 14.2445 5.99484 16.1862C6.65774 17.1461 7.46417 18.0062 8.38797 18.7386C6.72219 20.5874 4.09937 21.5588 4.07094 21.5693C3.94747 21.6139 3.83605 21.6849 3.74499 21.7768C3.65394 21.8688 3.58562 21.9794 3.54513 22.1004C3.50464 22.2214 3.49302 22.3496 3.51116 22.4755C3.52929 22.6015 3.5767 22.7218 3.64984 22.8276C3.73187 22.9457 4.06 23.3602 4.86172 23.7473C5.85266 24.2261 7.16187 24.4687 8.75 24.4687C16.4795 24.4687 22.9381 18.7291 23.5977 11.3442L26.8691 8.19064C26.9914 8.07258 27.0747 7.92218 27.1083 7.75847C27.142 7.59477 27.1246 7.42511 27.0583 7.27095ZM22.1364 10.3728C21.9864 10.5178 21.8962 10.7105 21.8827 10.9149C21.4375 17.5689 15.6712 22.7812 8.75 22.7812C7.595 22.7812 6.78125 22.6335 6.21031 22.4563C7.46922 21.7972 9.22469 20.6634 10.3534 19.0307C10.4197 18.9347 10.4648 18.8266 10.4861 18.7132C10.5073 18.5997 10.5042 18.4832 10.4769 18.3709C10.4497 18.2586 10.3988 18.153 10.3275 18.0604C10.2563 17.9678 10.1661 17.8903 10.0625 17.8326C10.0111 17.8041 5.25984 15.0545 5.25 7.70759C7 9.07869 10.1992 11.206 13.8545 11.7987C13.9798 11.8191 14.1082 11.8129 14.2307 11.7806C14.3533 11.7483 14.4671 11.6907 14.5642 11.6117C14.6613 11.5327 14.7394 11.4342 14.7931 11.3232C14.8467 11.2122 14.8747 11.0912 14.875 10.9687V9.28119C14.874 8.8311 14.9664 8.38537 15.1467 7.97022C15.3271 7.55508 15.5917 7.17891 15.925 6.86384C16.2445 6.55513 16.625 6.31133 17.044 6.14684C17.4629 5.98236 17.9118 5.90053 18.3641 5.90619C19.7487 5.92306 21.0427 6.73728 21.5841 7.93224C21.6523 8.08248 21.7645 8.21028 21.9069 8.3C22.0493 8.38972 22.2157 8.43748 22.3858 8.43744H24.1358L22.1364 10.3728Z" fill="#F5F5F5"/>
</svg>
