<svg width="56" height="56" viewBox="0 0 56 56" fill="none" xmlns="http://www.w3.org/2000/svg">
<path d="M28 5.25C23.5005 5.25 19.102 6.58426 15.3608 9.08407C11.6196 11.5839 8.70363 15.1369 6.98174 19.294C5.25985 23.451 4.80932 28.0252 5.68714 32.4383C6.56495 36.8514 8.73168 40.905 11.9133 44.0867C15.095 47.2683 19.1486 49.4351 23.5617 50.3129C27.9748 51.1907 32.549 50.7402 36.706 49.0183C40.8631 47.2964 44.4161 44.3804 46.9159 40.6392C49.4157 36.898 50.75 32.4995 50.75 28C50.7436 21.9683 48.3447 16.1854 44.0796 11.9204C39.8146 7.65528 34.0317 5.25637 28 5.25ZM16.205 43.2031C17.471 41.2232 19.215 39.5938 21.2763 38.4651C23.3376 37.3365 25.6499 36.7449 28 36.7449C30.3501 36.7449 32.6624 37.3365 34.7237 38.4651C36.785 39.5938 38.529 41.2232 39.795 43.2031C36.4226 45.8259 32.2722 47.2499 28 47.2499C23.7278 47.2499 19.5774 45.8259 16.205 43.2031ZM21 26.25C21 24.8655 21.4105 23.5122 22.1797 22.361C22.9489 21.2099 24.0421 20.3127 25.3212 19.7828C26.6003 19.253 28.0078 19.1144 29.3656 19.3845C30.7235 19.6546 31.9708 20.3213 32.9497 21.3003C33.9287 22.2792 34.5954 23.5265 34.8655 24.8844C35.1356 26.2422 34.997 27.6497 34.4672 28.9288C33.9373 30.2079 33.0401 31.3011 31.889 32.0703C30.7378 32.8395 29.3845 33.25 28 33.25C26.1435 33.25 24.363 32.5125 23.0503 31.1997C21.7375 29.887 21 28.1065 21 26.25ZM42.385 40.7772C40.4332 37.9489 37.6888 35.7609 34.4969 34.4881C36.2115 33.1377 37.4626 31.2865 38.0763 29.192C38.6901 27.0975 38.6358 24.8638 37.9212 22.8015C37.2066 20.7392 35.8671 18.9509 34.089 17.6853C32.3109 16.4196 30.1826 15.7395 28 15.7395C25.8174 15.7395 23.6891 16.4196 21.911 17.6853C20.1329 18.9509 18.7934 20.7392 18.0788 22.8015C17.3642 24.8638 17.3099 27.0975 17.9237 29.192C18.5374 31.2865 19.7885 33.1377 21.5031 34.4881C18.3112 35.7609 15.5668 37.9489 13.615 40.7772C11.1487 38.0038 9.53678 34.5766 8.97322 30.9083C8.40967 27.24 8.91854 23.487 10.4386 20.1012C11.9586 16.7154 14.425 13.8411 17.5407 11.8246C20.6564 9.80808 24.2887 8.73523 28 8.73523C31.7114 8.73523 35.3436 9.80808 38.4593 11.8246C41.575 13.8411 44.0414 16.7154 45.5614 20.1012C47.0815 23.487 47.5903 27.24 47.0268 30.9083C46.4632 34.5766 44.8513 38.0038 42.385 40.7772Z" fill="url(#paint0_linear_11_58)"/>
<defs>
<linearGradient id="paint0_linear_11_58" x1="28" y1="5.25" x2="28" y2="50.75" gradientUnits="userSpaceOnUse">
<stop stop-color="#1A88C7"/>
<stop offset="1" stop-color="#81C4D7" stop-opacity="0.48"/>
</linearGradient>
</defs>
</svg>
