<svg width="33" height="33" viewBox="0 0 33 33" fill="none" xmlns="http://www.w3.org/2000/svg">
<path d="M16.0716 3.73932C13.5005 3.73932 10.9871 4.50176 8.84922 5.93021C6.71138 7.35867 5.04514 9.38899 4.0612 11.7644C3.07726 14.1399 2.81981 16.7537 3.32142 19.2755C3.82303 21.7972 5.06116 24.1136 6.87924 25.9317C8.69733 27.7498 11.0137 28.9879 13.5355 29.4895C16.0572 29.9911 18.6711 29.7337 21.0465 28.7498C23.422 27.7658 25.4523 26.0996 26.8807 23.9617C28.3092 21.8239 29.0716 19.3105 29.0716 16.7393C29.068 13.2926 27.6972 9.98813 25.26 7.55095C22.8228 5.11377 19.5183 3.74296 16.0716 3.73932ZM9.33163 25.4268C10.055 24.2954 11.0516 23.3643 12.2295 22.7194C13.4074 22.0744 14.7287 21.7364 16.0716 21.7364C17.4145 21.7364 18.7358 22.0744 19.9137 22.7194C21.0916 23.3643 22.0882 24.2954 22.8116 25.4268C20.8845 26.9256 18.5129 27.7392 16.0716 27.7392C13.6304 27.7392 11.2587 26.9256 9.33163 25.4268ZM12.0716 15.7393C12.0716 14.9482 12.3062 14.1748 12.7458 13.517C13.1853 12.8592 13.81 12.3466 14.5409 12.0438C15.2718 11.741 16.0761 11.6618 16.852 11.8162C17.6279 11.9705 18.3406 12.3515 18.9001 12.9109C19.4595 13.4703 19.8404 14.183 19.9948 14.959C20.1491 15.7349 20.0699 16.5391 19.7671 17.2701C19.4644 18.001 18.9517 18.6257 18.2939 19.0652C17.6361 19.5047 16.8628 19.7393 16.0716 19.7393C15.0108 19.7393 13.9933 19.3179 13.2432 18.5677C12.4931 17.8176 12.0716 16.8002 12.0716 15.7393ZM24.2916 24.0406C23.1763 22.4244 21.6081 21.1741 19.7841 20.4468C20.7639 19.6751 21.4788 18.6173 21.8295 17.4204C22.1802 16.2236 22.1493 14.9472 21.7409 13.7688C21.3325 12.5903 20.5671 11.5684 19.5511 10.8452C18.535 10.1219 17.3188 9.73329 16.0716 9.73329C14.8245 9.73329 13.6083 10.1219 12.5922 10.8452C11.5761 11.5684 10.8107 12.5903 10.4024 13.7688C9.99401 14.9472 9.96302 16.2236 10.3137 17.4204C10.6644 18.6173 11.3794 19.6751 12.3591 20.4468C10.5352 21.1741 8.96692 22.4244 7.85163 24.0406C6.44234 22.4558 5.52122 20.4974 5.19919 18.4012C4.87715 16.305 5.16794 14.1604 6.03653 12.2257C6.90511 10.2909 8.31447 8.64854 10.0949 7.49624C11.8753 6.34394 13.9509 5.73088 16.0716 5.73088C18.1924 5.73088 20.268 6.34394 22.0484 7.49624C23.8288 8.64854 25.2381 10.2909 26.1067 12.2257C26.9753 14.1604 27.2661 16.305 26.9441 18.4012C26.622 20.4974 25.7009 22.4558 24.2916 24.0406Z" fill="#D9DCD6"/>
</svg>
